<svg width="101" height="172" viewBox="0 0 101 172" fill="none" xmlns="http://www.w3.org/2000/svg">
<g clip-path="url(#clip0_285_784)">
<path d="M100.354 13.185L28.293 0.47876L0.479099 158.219L72.5398 170.925L100.354 13.185Z" fill="white" stroke="#9FA0A0" stroke-width="3"/>
<path d="M22.4743 83.4728C22.6912 82.3223 22.9026 81.171 23.1303 80.0225C23.2952 79.1985 23.4542 78.3763 23.6083 77.5504C23.7682 76.6752 23.939 75.802 24.1147 74.9324C24.2326 74.3434 24.3482 73.7513 24.4687 73.1629C24.5446 72.7959 24.6287 72.4303 24.7105 72.0616C24.7408 71.9215 24.7739 71.7819 24.8042 71.6418C24.8943 71.2102 25.0061 70.7824 25.1234 70.3556C25.2003 70.0783 25.2718 69.8 25.3482 69.5254C25.5052 68.9686 25.6491 68.4066 25.8492 67.8601C26.0334 67.3556 26.269 66.877 26.521 66.4012C26.8782 65.7258 27.3714 65.1527 27.8845 64.5943C27.9578 64.5122 28.0383 64.4368 28.1143 64.3552C28.156 64.3094 28.1495 64.283 28.0935 64.2508C28.0398 64.2218 27.9856 64.1954 27.9314 64.1691C27.7543 64.0931 27.5838 63.9959 27.4228 63.892C27.2745 63.7959 27.1179 63.7152 26.9576 63.6394C26.8541 63.5904 26.7514 63.5695 26.637 63.5828C26.5226 63.5962 26.4056 63.5924 26.2904 63.5944C26.1475 63.5944 26.0014 63.5966 25.8595 63.5912C25.7426 63.5874 25.6265 63.5781 25.5132 63.5693C25.4027 63.561 25.2926 63.55 25.1824 63.5389C25.1217 63.5338 25.0615 63.526 25.0017 63.5155C24.8649 63.4969 24.7503 63.432 24.6518 63.3391C24.5633 63.2536 24.4907 63.1568 24.4313 63.0485C24.3047 62.8136 24.1803 62.5819 24.0595 62.3453C24.0056 62.2379 23.9645 62.1215 23.9229 62.0079C23.842 61.7839 23.7637 61.5603 23.6887 61.3345C23.5797 60.9993 23.4917 60.6565 23.4123 60.3125C23.3311 59.9626 23.2704 59.6078 23.241 59.2503C23.1978 58.7168 23.1433 58.1842 23.1427 57.6471C23.1414 57.4483 23.1595 57.2501 23.1722 57.051C23.1882 56.7853 23.1956 56.5209 23.2252 56.2577C23.2714 55.8687 23.3181 55.4769 23.3942 55.0932C23.4616 54.7583 23.5454 54.4262 23.6531 54.1012C23.9678 53.1582 24.4405 52.3047 25.0842 51.5455C25.4266 51.1444 25.7996 50.7767 26.231 50.4752C26.2757 50.4439 26.3209 50.4099 26.3679 50.3819C26.7623 50.1466 27.1568 49.9112 27.5744 49.7192C28.2089 49.4255 28.8787 49.2332 29.5686 49.1171C30.0942 49.028 30.6215 48.9923 31.1548 49.0024C31.727 49.0138 32.2935 49.0578 32.8545 49.1651C33.6079 49.3091 34.337 49.5272 35.0278 49.8671C35.5231 50.1083 35.9734 50.4142 36.3923 50.7706C36.9189 51.2158 37.3718 51.7292 37.7589 52.2981C38.0324 52.7015 38.2716 53.1241 38.4767 53.5658C38.8018 54.2636 39.0401 54.9936 39.2574 55.7311C39.5315 56.6549 39.6952 57.6011 39.7694 58.5623C39.7954 58.8914 39.8096 59.2239 39.8357 59.5529C39.8464 59.7142 39.8328 59.8712 39.8154 60.0332C39.8071 60.0961 39.7619 60.13 39.8265 60.1135C40.031 60.0656 40.2996 60.0039 40.5033 59.9447C41.0285 59.794 41.5625 59.6728 42.0988 59.5548C42.4869 59.4666 42.875 59.3784 43.2631 59.2902C43.6421 59.206 44.0215 59.1359 44.4074 59.0921C44.6303 59.067 44.8483 59.0859 45.0635 59.1518C45.1219 59.1705 45.1797 59.1919 45.2302 59.2232C45.3412 59.2931 45.3732 59.3658 45.5005 59.3268C45.8694 59.2044 46.3256 59.0639 46.7077 58.9942C47.2465 58.8935 47.7907 58.8412 48.3374 58.8229C48.8079 58.808 49.2759 58.8066 49.7475 58.817C49.9846 58.8225 50.2216 58.8447 50.4596 58.8615C50.9799 58.8973 51.4942 58.9516 52.0076 59.0422C52.4206 59.115 52.8334 59.2045 53.2397 59.3153C53.6536 59.4303 54.0407 59.602 54.3917 59.8513C54.5634 59.9739 54.7214 60.1108 54.8651 60.2648C54.8956 60.2981 54.9245 60.3088 54.9656 60.2825C55.181 60.1415 55.4221 60.0609 55.6649 59.9863C56.0024 59.8836 56.3438 59.79 56.6971 59.7404C57.0418 59.6921 57.3894 59.6751 57.74 59.6726C57.911 59.6719 58.0837 59.6772 58.2542 59.6793C58.3213 59.68 58.388 59.6833 58.4536 59.6921C59.2874 59.7776 60.0794 60.004 60.8275 60.3848C60.9895 60.4665 61.1548 60.546 61.3164 60.6304C61.4626 60.7065 61.6079 60.7881 61.7417 60.8872C61.7692 60.906 61.7967 60.9249 61.8252 60.9383C62.0911 61.0663 62.3184 61.2546 62.5536 61.4303C62.7738 61.595 62.9973 61.7575 63.2203 61.9226C63.2325 61.9332 63.2478 61.9415 63.26 61.952C63.3127 61.9865 63.3598 61.9892 63.4119 61.948C63.4507 61.9185 63.4923 61.8895 63.5356 61.8664C63.846 61.6945 64.1645 61.6836 64.4939 61.8172C64.9046 61.9819 65.3025 62.1723 65.6818 62.4042C66.5107 62.914 67.3438 63.4161 68.1539 63.9532C68.2089 63.9909 68.2643 64.0259 68.3318 64.0406C68.3725 64.0477 68.3954 64.0294 68.3917 63.9868C68.3893 63.9528 68.3837 63.921 68.378 63.8893C68.2922 63.5022 68.337 63.1213 68.4289 62.7432C68.4467 62.6736 68.4646 62.604 68.4879 62.5354C68.6411 62.0954 68.9294 61.763 69.3293 61.5287C69.5979 61.3719 69.8946 61.3095 70.2035 61.3053C70.4394 61.3021 70.6668 61.331 70.8859 61.4228C70.9017 61.4284 70.9176 61.434 70.9334 61.4395C70.9687 61.4458 71.0005 61.4402 71.0176 61.4068C71.031 61.3784 71.0449 61.3473 71.0561 61.3157C71.2892 60.6129 71.6172 59.9603 72.0431 59.3558C72.0657 59.3234 72.0882 59.291 72.1129 59.2618C72.7384 58.5107 73.4657 57.881 74.3115 57.3896C75.0077 56.9838 75.7619 56.742 76.5541 56.602C77.2165 56.4839 77.8831 56.4364 78.5511 56.4927C79.2023 56.5488 79.8449 56.6537 80.4764 56.8377C80.897 56.9622 81.3099 57.0994 81.7106 57.2735C82.97 57.82 83.9672 58.6783 84.7219 59.8154C85.2597 60.6262 85.582 61.5305 85.7493 62.4886C85.8372 62.9907 85.8603 63.4954 85.8288 64.0073C85.8022 64.4445 85.7651 64.877 85.6565 65.3026C85.5012 65.9129 85.3062 66.5106 85.0266 67.0794C84.991 67.1542 84.9581 67.2295 84.9198 67.3039C84.8829 67.3701 84.8992 67.4205 84.9501 67.4658C84.9982 67.5107 85.0495 67.5533 85.1045 67.591C85.5028 67.8738 85.717 68.2639 85.7752 68.7441C85.7962 68.9268 85.7728 69.1072 85.7439 69.2867C85.6539 69.861 85.3851 70.3366 84.9453 70.7177C84.7369 70.8991 84.4995 71.0223 84.2299 71.0894C83.7699 71.2041 83.3207 71.178 82.8754 71.0184C82.8225 71.0007 82.7696 70.983 82.7194 70.9657C82.6507 70.9424 82.5903 70.9513 82.5363 71.0034C82.4558 71.0787 82.3703 71.1503 82.2898 71.2256C81.8411 71.6415 81.3454 71.9904 80.8009 72.2664C80.6132 72.3619 80.4214 72.4484 80.2244 72.5171C79.8004 72.6661 79.3738 72.7979 78.9336 72.8797C78.7105 72.9214 78.4844 72.9487 78.2589 72.9565C78.2194 72.9579 78.1822 72.9625 78.1445 72.9699C78.1213 72.9742 78.1062 72.9967 78.1132 73.0203C78.1215 73.0525 78.1298 73.0847 78.1441 73.1152C78.1951 73.2389 78.2557 73.3559 78.3163 73.4728C78.7963 74.4049 79.1925 75.367 79.373 76.4084C79.473 76.9854 79.513 77.5686 79.5217 78.1547C79.5314 78.7354 79.5134 79.3139 79.4592 79.8917C79.4278 80.2442 79.4133 80.5968 79.3874 80.9502C79.374 81.1213 79.3498 81.2904 79.331 81.4605C79.2436 82.1947 79.1616 82.9298 79.0601 83.6642C78.9592 84.3792 78.8687 85.0988 78.7679 85.8138C78.7116 86.2122 78.6386 86.6105 78.5416 87.0017C78.4748 87.2696 78.4188 87.5394 78.3628 87.8092C78.277 88.2164 78.1623 88.6129 78.0181 89.0014C77.9749 89.1197 77.9262 89.237 77.8748 89.3537C77.7859 89.5562 77.6429 89.7156 77.4568 89.8338C77.4189 89.8579 77.3815 89.8793 77.3437 89.9034C77.2242 89.9774 77.1547 90.0854 77.1303 90.2237C77.1026 90.3811 77.0748 90.5384 77.0471 90.6957C76.9443 91.2789 76.8066 91.8532 76.6635 92.4264C76.5749 92.7856 76.4488 93.1354 76.3336 93.487C76.1595 94.0297 75.9176 94.5436 75.6856 95.0648C75.4346 95.6303 75.2153 96.2069 75.0168 96.7928C74.9129 97.0961 74.8062 97.399 74.7028 97.6996C74.6805 97.7628 74.6613 97.8237 74.6602 97.8934C74.6583 97.9518 74.6392 98.0128 74.6205 98.071C74.4515 98.6481 74.2771 99.2243 74.1081 99.8014C74.02 100.11 73.9401 100.421 73.8579 100.728C73.7349 101.187 73.6146 101.647 73.492 102.104C73.4873 102.131 73.4711 102.159 73.4723 102.184C73.4837 102.326 73.4326 102.457 73.4037 102.589C73.3875 102.681 73.3658 102.772 73.3468 102.864C73.1889 103.616 73.0342 104.367 72.8763 105.119C72.735 105.793 72.5932 106.47 72.4437 107.143C72.3795 107.428 72.3091 107.78 72.2607 108.07C72.2449 108.16 72.2556 108.179 72.2852 108.265C72.434 108.66 72.4444 109.062 72.3527 109.471C72.312 109.654 72.2659 109.836 72.1904 110.01C71.9041 110.664 71.3453 111.022 70.6329 111.011C70.2783 111.004 69.9261 110.984 69.5751 110.925C69.2378 110.868 68.898 110.825 68.5574 110.771C68.3021 110.726 68.0486 110.67 67.79 110.627C67.1882 110.529 66.5943 110.402 66.0038 110.256C65.6065 110.158 65.2162 110.036 64.8441 109.859C64.5804 109.734 64.3524 109.565 64.1548 109.351C63.6968 108.851 63.7285 108.21 63.9885 107.753C64.0617 107.623 64.1553 107.505 64.2683 107.405C64.4676 107.228 64.6849 107.076 64.937 106.98C65.1955 106.881 65.4496 106.774 65.7174 106.701C65.7647 106.687 65.8439 106.651 65.8895 106.631C65.9468 106.607 65.9398 106.584 65.9399 106.52C65.9389 106.382 65.9411 106.243 65.9455 106.107C65.9723 105.255 66.0014 104.408 66.0282 103.556C66.0481 102.967 66.0625 102.377 66.0856 101.785C66.1038 101.332 66.1274 100.881 66.1706 100.43C66.2256 99.8631 66.2693 99.2974 66.319 98.73C66.3584 98.2839 66.4006 97.8383 66.4395 97.3948C66.4637 97.1306 66.4879 96.8664 66.5094 96.6017C66.5154 96.5356 66.5183 96.4718 66.5438 96.4064C66.5582 96.3725 66.5572 96.3304 66.5639 96.2924C66.6076 95.7743 66.6812 95.2615 66.7716 94.7488C66.8051 94.559 66.8196 94.3657 66.8395 94.1735C66.8933 93.646 66.9774 93.121 67.0584 92.5983C67.212 91.6157 67.363 90.6327 67.5166 89.6501C67.5533 89.4105 67.5926 89.1713 67.6298 88.9289C67.6511 88.7761 67.6698 88.6227 67.6857 88.4689C67.6992 88.3286 67.6504 88.2082 67.547 88.1116C67.5182 88.0842 67.4889 88.0594 67.4597 88.0347C67.2725 87.873 67.1637 87.6637 67.131 87.4202C67.0969 87.1848 67.0941 86.9466 67.1439 86.712C67.2923 85.9971 67.4431 85.2853 67.6155 84.5773C67.7088 84.191 67.7967 83.8038 67.8901 83.4175C68.1276 82.4357 68.3167 81.4426 68.5303 80.4538C68.6477 79.9152 68.7601 79.3728 68.8775 78.8342C68.9191 78.6457 68.9662 78.4583 69.0133 78.2708C69.1706 77.6329 69.2849 76.9846 69.3444 76.3294C69.4005 75.7408 69.3482 75.1638 69.1452 74.5994C68.8647 73.8228 68.4689 73.1125 67.9806 72.4503C67.6482 72.0001 67.2861 71.5754 66.8906 71.1813C65.5539 69.8492 64.1582 68.5823 62.6818 67.4074C62.4486 67.2208 62.2222 67.0271 61.9927 66.8356C61.8095 66.683 61.6464 66.5116 61.4774 66.342C61.2801 66.1422 61.2161 65.9015 61.2417 65.6292C61.2476 65.5799 61.259 65.5315 61.2621 65.4817C61.2727 65.4221 61.2477 65.3729 61.1945 65.3412C61.1616 65.3214 61.1286 65.3016 61.0925 65.284C60.8248 65.1501 60.5603 65.014 60.2916 64.8855C59.9435 64.715 59.6234 64.4964 59.3066 64.2755C59.1967 64.2002 59.0904 64.1199 58.9841 64.0396C58.6003 63.7538 58.1759 63.5391 57.7423 63.3452C57.3994 63.1925 57.0529 63.0447 56.7101 62.8919C56.575 62.8317 56.4414 62.7634 56.3036 62.7028C56.0805 62.6019 55.8489 62.5331 55.6033 62.5122C55.292 62.4825 54.9367 62.3527 54.654 62.2245C54.5916 62.1967 54.5965 62.2172 54.5265 62.2328C54.2938 62.2813 54.0568 62.3066 53.8171 62.2839C53.7125 62.2739 53.6201 62.3051 53.529 62.345C53.1839 62.4911 52.8249 62.5732 52.4553 62.6199C52.2092 62.6493 51.9614 62.6727 51.7122 62.6875C51.2816 62.715 50.8546 62.7852 50.4309 62.8531C50.1138 62.9035 49.8003 62.9657 49.4811 63.0129C49.0156 63.079 48.546 63.1053 48.0747 63.0613C47.5844 63.0141 47.0927 63.0224 46.6021 63.1038C46.579 63.1081 46.559 63.1101 46.5385 63.1149C46.2995 63.1679 46.316 63.154 46.2414 63.3702C46.1781 63.5548 46.0683 63.7005 45.9257 63.8263C45.7592 63.976 45.5781 64.0979 45.3678 64.1783C45.2176 64.2357 45.0697 64.2963 44.9177 64.3478C43.8768 64.7068 42.8496 65.0991 41.8224 65.4913C41.2007 65.7285 40.6017 66.0116 40.0169 66.3253C39.3488 66.6829 38.6959 67.0656 38.0536 67.467C37.7704 67.6436 37.5132 67.8472 37.2617 68.0657C37.0007 68.291 36.834 68.5693 36.7507 68.8986C36.7159 69.0323 36.6866 69.167 36.6708 69.304C36.6562 69.4189 36.6442 69.5343 36.6214 69.6477C36.4655 70.4844 36.3535 71.3261 36.2464 72.1715C36.1477 72.9539 36.0403 73.7377 35.9361 74.5192C35.816 75.407 35.7018 76.2931 35.5654 77.178C35.494 77.6464 35.4384 78.1205 35.3697 78.5894C35.2456 79.4206 35.111 80.2471 34.9842 81.0778C34.865 81.865 34.7489 82.6501 34.6325 83.4378C34.5687 83.8629 34.5099 84.2916 34.4462 84.7167C34.37 85.2123 34.2933 85.7106 34.2063 86.2043C33.9812 87.4651 33.7615 88.7269 33.5413 89.9914C33.5002 90.2247 33.4699 90.4599 33.431 90.6963C33.387 90.9459 33.3376 91.1945 33.2985 91.4477C33.183 92.23 33.0326 93.0034 32.8954 93.7819C32.782 94.4248 32.6691 95.0649 32.5503 95.7068C32.4701 96.1458 32.3867 96.5869 32.293 97.0235C32.2343 97.2928 32.1701 97.5612 32.082 97.8226C32.0233 97.9968 31.9519 98.1632 31.8467 98.3153C31.718 98.5051 31.544 98.6339 31.331 98.7138C31.1035 98.7967 30.8692 98.8225 30.6294 98.8166C30.0331 98.7982 29.4368 98.7489 28.8447 98.6753C28.538 98.6352 28.2289 98.6087 27.9213 98.574C27.8996 98.5702 27.8773 98.5691 27.8547 98.5707C27.807 98.5707 27.7918 98.5456 27.781 98.5912C27.7327 98.8177 27.6789 99.0907 27.655 99.3214C27.6466 99.401 27.6297 99.4176 27.7097 99.4401C27.9567 99.5172 28.2443 99.6015 28.494 99.6791C28.8635 99.7918 29.2301 99.9208 29.5838 100.075C29.6959 100.123 29.8038 100.179 29.9038 100.247C29.9313 100.265 29.9593 100.281 29.99 100.298C30.2126 100.402 30.4076 100.551 30.5894 100.711C30.9556 101.033 31.1524 101.443 31.1783 101.931C31.182 101.974 31.1766 102.02 31.1689 102.064C31.1444 102.266 31.0949 102.467 31.0193 102.658C30.8619 103.058 30.579 103.344 30.1699 103.487C29.8865 103.586 29.5965 103.658 29.2945 103.655C29.1938 103.654 29.0968 103.648 28.9971 103.641C28.5824 103.61 28.1709 103.577 27.7602 103.507C27.4776 103.457 27.4124 103.446 27.0926 103.401C26.9939 103.389 26.6755 103.336 26.5777 103.318C26.0371 103.223 25.531 103.17 24.9917 103.067C24.4906 102.97 23.9959 102.852 23.5158 102.683C23.2938 102.608 23.0833 102.515 22.8987 102.37C22.6425 102.171 22.456 101.926 22.3472 101.621C22.2372 101.308 22.2065 100.99 22.2757 100.661C22.3757 100.189 22.5529 99.7558 22.83 99.36C23.0961 98.979 23.1087 98.9393 23.1755 98.4812C23.1978 98.3229 23.231 98.1665 23.2506 98.0078C23.2783 97.8029 23.3284 97.7726 23.1315 97.7295C23.0075 97.702 22.8228 97.6694 22.6973 97.6501C22.2042 97.5715 21.7228 97.4419 21.2456 97.3046C21.0963 97.2615 20.9516 97.208 20.807 97.1546C20.6705 97.1025 20.5492 97.028 20.4367 96.9354C20.1999 96.7371 20.1002 96.4762 20.0857 96.1772C20.0759 95.9629 20.0915 95.7475 20.1206 95.5344C20.2412 94.5964 20.4107 93.667 20.5906 92.7422C20.7499 91.934 20.9169 91.13 21.087 90.3237C21.2188 89.7037 21.3619 89.0828 21.4936 88.4628C21.6421 87.7478 21.7847 87.0346 21.9277 86.3186C22.0612 85.657 22.1915 84.9975 22.3195 84.3349C22.3737 84.0591 22.4171 83.7815 22.4664 83.5021L22.4718 83.5031L22.4743 83.4728ZM23.5636 83.7292C23.4249 84.4207 23.2975 85.0639 23.1669 85.7093C23.0471 86.3091 22.9296 86.912 22.8044 87.5109C22.6502 88.2584 22.4883 89.0018 22.3318 89.7461C22.2758 90.0159 22.2226 90.2862 22.1661 90.5587C22.0569 91.0989 21.939 91.6402 21.8352 92.1813C21.6612 93.1043 21.4981 94.0293 21.3296 94.9533C21.278 95.2463 21.2313 95.5429 21.2127 95.8389C21.203 96.005 21.2446 96.071 21.3996 96.1291C21.565 96.1919 21.7346 96.2469 21.907 96.2857C22.16 96.3443 22.413 96.4029 22.6651 96.4669C23.1963 96.5998 23.735 96.7059 24.2715 96.8089C24.8651 96.922 25.4573 97.0264 26.0537 97.1232C26.2607 97.1569 26.4667 97.196 26.6759 97.2329C27.117 97.3051 27.5617 97.3723 28.0052 97.4309C28.6294 97.513 29.2535 97.6119 29.8829 97.6641C30.1204 97.6836 30.3576 97.6891 30.5958 97.6724C30.8854 97.6507 30.9851 97.562 31.0457 97.2818C31.1158 96.9474 31.1811 96.6093 31.2594 96.2763C31.3963 95.6907 31.5064 95.0976 31.6188 94.5077C31.767 93.7312 31.9011 92.9549 32.041 92.1769C32.2269 91.1385 32.4156 90.1006 32.5987 89.0617C32.9269 87.2009 33.2599 85.3438 33.5418 83.4749C33.691 82.4859 33.8483 81.4984 34.0024 80.5131C34.0515 80.2029 34.1038 79.8905 34.1502 79.5799C34.2141 79.138 34.2703 78.6921 34.3396 78.2512C34.4402 77.6173 34.5403 76.986 34.6214 76.3515C34.6899 75.8042 34.7557 75.2564 34.8273 74.7069C34.8751 74.3405 34.9311 73.9756 34.9793 73.6066C35.0203 73.2949 35.0585 72.9828 35.0967 72.6707C35.1547 72.1831 35.2072 71.6946 35.2733 71.2084C35.3913 70.3649 35.544 69.5304 35.7027 68.6942C35.7361 68.5043 35.7805 68.3164 35.8438 68.1318C35.917 67.9237 35.9955 67.7166 36.1458 67.5473C36.2581 67.4189 36.3776 67.2973 36.5097 67.1836C36.741 66.9838 36.9875 66.8091 37.2412 66.6413C37.5017 66.4663 37.7673 66.295 38.0457 66.1455C38.3712 65.9679 38.6984 65.7963 39.0283 65.6251C39.1764 65.5478 39.3235 65.4758 39.4734 65.4044C39.9134 65.1967 40.3529 64.9917 40.7957 64.7845C40.8508 64.7578 40.9077 64.7371 40.965 64.7136C41.3961 64.5407 41.8289 64.3737 42.2578 64.1976C42.7134 64.0123 43.1674 63.821 43.6328 63.6598C43.9522 63.5483 44.2711 63.4395 44.5873 63.3302C44.7274 63.2822 44.8623 63.2165 44.9954 63.1449C45.2123 63.0265 45.2487 62.963 45.2106 62.7185C45.1771 62.5113 45.1409 62.3035 45.0751 62.1045C45.0051 61.8824 44.9463 61.6595 44.8876 61.4366C44.8533 61.3131 44.8213 61.1928 44.7812 61.071C44.7304 60.9138 44.677 60.7562 44.6231 60.6012C44.5546 60.4018 44.4173 60.2909 44.2046 60.2897C44.1488 60.2883 44.0948 60.2927 44.0399 60.3026C43.959 60.3163 43.8772 60.3355 43.7954 60.3546C43.2782 60.476 42.9463 60.5629 42.4305 60.6761C41.8097 60.8128 41.0049 60.9925 40.396 61.1732C39.586 61.4135 38.7716 61.6475 37.9705 61.9174C37.9018 61.9416 37.834 61.9605 37.7636 61.9788C37.4921 62.0568 37.2216 62.1293 36.9536 62.2191C36.7244 62.2962 36.4901 62.3696 36.2595 62.438C35.8689 62.5565 35.4765 62.6691 35.0831 62.7871C34.586 62.9372 34.0907 63.0932 33.5914 63.2401C32.6937 63.5013 31.8093 63.7985 30.9413 64.146C30.5043 64.3207 30.0793 64.5226 29.6753 64.7646C29.2462 65.0218 28.8471 65.315 28.5144 65.6927C28.4232 65.7969 28.327 65.8974 28.2313 65.9952C28.1389 66.0907 28.0563 66.1936 27.9782 66.3029C27.4692 67.0131 27.0911 67.7911 26.8033 68.6129C26.6338 69.0977 26.4932 69.5931 26.3613 70.0872C26.2832 70.3867 26.1976 70.6821 26.1195 70.9815C26.0311 71.324 25.9346 71.6649 25.8598 72.0097C25.6958 72.7807 25.5341 73.5549 25.3887 74.332C25.1213 75.7531 24.8621 77.1758 24.5697 78.5954C24.4273 79.2918 24.3061 79.9948 24.1741 80.696C23.981 81.7275 23.7825 82.7581 23.5681 83.7355L23.5636 83.7292ZM77.8204 84.4832C77.9166 83.7786 78.0213 83.1846 78.0876 82.5865C78.1489 82.0324 78.246 81.4818 78.285 80.9265C78.3224 80.4129 78.3538 79.901 78.3685 79.389C78.389 78.7325 78.3786 78.0762 78.3542 77.4203C78.3402 77.0234 78.3093 76.6264 78.2122 76.2401C78.1102 75.8334 77.9851 75.4309 77.8504 75.0352C77.5363 74.1156 77.0759 73.2793 76.4541 72.532C76.0957 72.1024 75.7171 71.6916 75.3348 71.2858C74.3296 70.2191 73.2872 69.1879 72.1547 68.2554C71.2251 67.4902 70.2749 66.7465 69.3023 66.0352C67.9327 65.033 66.5176 64.0982 65.0772 63.1954C64.9411 63.1099 64.8002 63.0347 64.6594 62.9595C64.5877 62.9217 64.5095 62.8883 64.429 62.8685C64.2629 62.8253 64.1242 62.8651 64.007 62.9899C63.8897 63.1147 63.777 63.2458 63.6768 63.3848C63.2736 63.9402 62.9208 64.5268 62.5911 65.1259C62.5422 65.2124 62.4906 65.2984 62.4494 65.389C62.3346 65.6429 62.3593 65.7731 62.5666 65.9635C62.68 66.0674 62.7992 66.1695 62.9194 66.2662C64.26 67.3696 65.5615 68.5193 66.8425 69.6905C67.2621 70.0749 67.6639 70.4814 68.0327 70.9156C68.3365 71.274 68.6366 71.6374 68.9345 71.9975C69.0152 72.0957 69.0923 72.1988 69.1639 72.3009C69.6946 73.0406 70.0599 73.8601 70.3155 74.7302C70.3871 74.975 70.4298 75.2259 70.4351 75.4813C70.4421 75.807 70.4297 76.132 70.3949 76.4559C70.3602 76.7798 70.3092 77.1009 70.2578 77.4246C70.1304 78.2104 69.9465 78.9835 69.7784 79.7622C69.6343 80.436 69.4844 81.1115 69.3322 81.7839C69.1979 82.3867 69.0799 82.9924 68.9076 83.5885C68.8088 83.9263 68.7362 84.2743 68.656 84.6181C68.6136 84.7952 68.5766 84.9733 68.5341 85.1504C68.5021 85.2846 68.4591 85.4169 68.4243 85.5506C68.3237 85.9468 68.266 86.3533 68.1925 86.7543C68.1772 86.8411 68.1728 86.9298 68.171 87.019C68.1657 87.1607 68.2235 87.2772 68.3439 87.3572C68.4093 87.3994 68.4751 87.439 68.5451 87.4709C68.7854 87.586 69.0317 87.6826 69.2882 87.753C69.86 87.9098 70.4306 88.0579 71.0147 88.1609C71.1288 88.181 71.2419 88.2066 71.3546 88.2348C71.7193 88.3271 72.085 88.4139 72.4572 88.4796C73.2695 88.6228 74.0833 88.7579 74.8914 88.9088C75.3442 88.9942 75.7996 89.0326 76.2602 89.0579C76.3155 89.062 76.3695 89.0576 76.4262 89.0536C76.6368 89.0348 76.7875 88.9271 76.8871 88.7433C76.9545 88.6153 77.0088 88.4823 77.0364 88.3417C77.0592 88.2282 77.0847 88.1153 77.1157 88.0033C77.2103 87.6731 77.2967 87.3416 77.3588 87.0057C77.5214 86.131 77.6786 85.2553 77.8162 84.4909L77.8204 84.4832ZM77.4641 60.7032C77.2955 60.6903 77.028 60.5872 76.7609 60.4813C76.6954 60.4558 76.6318 60.4194 76.576 60.3704C76.5301 60.3288 76.4806 60.2921 76.4989 60.2198C76.5158 60.1556 76.5722 60.1376 76.6267 60.1304C76.7307 60.1124 76.8338 60.0998 76.9391 60.0904C77.2886 60.0626 77.6267 59.9879 77.9592 59.8815C78.0274 59.86 78.0939 59.8326 78.1603 59.8051C78.2022 59.7901 78.2401 59.7661 78.269 59.7292C78.3006 59.6928 78.2884 59.6347 78.2464 59.6189C78.2306 59.6134 78.2148 59.6078 78.1985 59.6049C78.0636 59.5755 77.9282 59.5488 77.7871 59.5547C77.6319 59.5609 77.4777 59.5617 77.3243 59.5738C76.8787 59.6071 76.4324 59.6599 75.9934 59.7503C75.5281 59.8472 75.0646 59.9501 74.6265 60.1469C74.3705 60.264 74.1119 60.3806 73.8858 60.5505C73.4666 60.8626 73.0906 61.2158 72.7541 61.6151C72.506 61.9098 72.2476 62.1999 71.9946 62.4909C71.9176 62.578 71.8406 62.6651 71.7497 62.7358C71.6396 62.8199 71.5193 62.835 71.39 62.7898C71.2896 62.7553 71.2204 62.6872 71.1686 62.5998C71.1061 62.4936 71.0175 62.4081 70.9349 62.3208C70.8783 62.2605 70.8075 62.2172 70.7293 62.1839C70.5386 62.1055 70.3409 62.0986 70.1414 62.1026C69.925 62.1064 69.7469 62.1952 69.594 62.3473C69.5052 62.4379 69.4235 62.5354 69.3469 62.6365C69.1885 62.8519 69.1019 63.0884 69.1017 63.3596C69.1019 63.6925 69.1862 63.9926 69.4048 64.2465C69.5071 64.3653 69.6209 64.4664 69.7548 64.5488C69.9091 64.6431 70.0656 64.7406 70.2198 64.8349C70.3592 64.9183 70.4566 65.0333 70.4991 65.189C70.5299 65.3007 70.5633 65.4129 70.5913 65.5241C70.6219 65.6526 70.6871 65.7592 70.7903 65.8417C70.8641 65.8995 70.938 65.9572 71.015 66.0128C71.2231 66.1669 71.4381 66.3139 71.6458 66.4708C72.3106 66.974 72.9465 67.514 73.5778 68.0645C74.843 69.1658 76.0401 70.3362 77.1287 71.6133C77.1938 71.6891 77.2662 71.755 77.3345 71.8286C77.4787 71.9799 77.6542 72.0332 77.8611 72.0193C78.7878 71.959 79.6533 71.6893 80.4623 71.2474C80.9145 71.0027 81.3497 70.727 81.7508 70.4062C81.8682 70.3122 81.9896 70.2273 82.12 70.1552C82.2996 70.0582 82.4825 70.0374 82.6783 70.1026C82.8556 70.1619 83.0379 70.208 83.2203 70.2541C83.4211 70.3063 83.6252 70.3088 83.8296 70.2777C84.0485 70.2436 84.2434 70.1549 84.4022 70.0011C84.6918 69.7249 84.874 69.3906 84.9008 68.9842C84.9223 68.672 84.8113 68.4119 84.5696 68.2098C84.4012 68.0683 84.2066 67.9808 83.9846 67.9529C83.9135 67.9431 83.8419 67.9361 83.7713 67.9236C83.6055 67.8944 83.5345 67.8204 83.4993 67.6547C83.4828 67.5735 83.4836 67.4897 83.4871 67.4065C83.5091 66.837 83.5192 66.271 83.5217 65.7009C83.5232 64.9936 83.4538 64.2905 83.3187 63.5954C83.2051 63.016 82.9961 62.4702 82.69 61.9659C82.4036 61.4931 82.0669 61.0673 81.5939 60.763C81.4203 60.6513 81.2488 60.607 81.0451 60.6662C80.8 60.7377 80.5488 60.7801 80.2955 60.8025C79.8938 60.8408 79.4902 60.8423 79.0879 60.8357C78.585 60.8282 78.084 60.7622 77.4624 60.6973L77.4641 60.7032ZM25.5107 56.8956C25.4753 57.0963 25.4399 57.297 25.404 57.5005C25.3916 57.571 25.371 57.6401 25.34 57.7045C25.2988 57.7952 25.2469 57.8196 25.1537 57.792C25.0736 57.7694 24.9982 57.7366 24.9228 57.7037C24.8243 57.6584 24.7192 57.651 24.6129 57.6658C24.3636 57.6974 24.1676 57.8083 24.0282 58.027C23.9191 58.2007 23.8888 58.3884 23.8857 58.5808C23.8824 58.79 23.8955 59.0021 23.9321 59.2071C23.9515 59.3196 23.9759 59.4358 24.0125 59.5457C24.1365 59.9228 24.3857 60.1933 24.7388 60.3674C24.9194 60.4552 25.1131 60.5005 25.318 60.4667C25.3498 60.4611 25.3833 60.4615 25.4174 60.4591C25.613 60.446 25.7769 60.5169 25.9026 60.6621C26.0772 60.8635 26.2427 61.0689 26.3784 61.2998C26.4083 61.3526 26.4414 61.4032 26.4745 61.4538C26.7668 61.8773 27.108 62.2619 27.4789 62.6209C27.527 62.6658 27.5783 62.7084 27.6301 62.7483C27.8207 62.891 28.0227 63.0161 28.233 63.1259C28.5382 63.286 28.8605 63.396 29.2024 63.459C29.4523 63.5031 29.6829 63.4822 29.912 63.3744C30.3237 63.1841 30.7492 63.027 31.1765 62.8758C31.7138 62.688 32.2582 62.5239 32.8035 62.3544C33.654 62.0904 34.5023 61.8233 35.3523 61.562C35.758 61.4378 36.1699 61.3258 36.5796 61.2107C36.6505 61.1896 36.7133 61.1671 36.7512 61.0955C36.9169 60.7751 37.0664 60.4518 37.1535 60.1008C37.1817 59.9883 37.2154 59.8768 37.254 59.7689C37.2871 59.6769 37.3287 59.5835 37.3825 59.5007C37.4594 59.3828 37.5621 59.3086 37.7046 59.2946C37.7387 59.2922 37.77 59.2894 37.8045 59.2843C37.9588 59.2667 38.1084 59.2288 38.2514 59.1645C38.516 59.0461 38.7104 58.865 38.8149 58.5898C38.9321 58.2749 38.9836 57.9511 38.9449 57.6143C38.9281 57.4715 38.894 57.3312 38.8508 57.1949C38.8134 57.0737 38.7641 56.9559 38.6843 56.8523C38.5148 56.6378 38.2954 56.532 38.0204 56.5507C37.8815 56.5597 37.7487 56.5979 37.6292 56.6719C37.5914 56.696 37.554 56.7173 37.5144 56.7355C37.4137 56.7821 37.2542 56.7652 37.1925 56.6228C37.1565 56.541 37.1141 56.4636 37.0836 56.3827C36.9852 56.1304 36.89 55.8759 36.8002 55.6223C36.7361 55.446 36.6596 55.2759 36.5718 55.1066C36.4087 54.7925 36.2146 54.4954 36.004 54.2122C35.7952 53.9348 35.53 53.723 35.2116 53.5746C34.8932 53.4262 34.5506 53.3518 34.2143 53.2729C33.8541 53.187 33.4825 53.1495 33.1155 53.1183C32.7842 53.0906 32.454 53.0884 32.1202 53.091C31.5542 53.0919 30.9936 53.1413 30.436 53.222C29.8061 53.3151 29.1835 53.4458 28.5681 53.6002C28.1371 53.7088 27.7187 53.842 27.3098 54.016C26.9465 54.1701 26.6373 54.3981 26.3856 54.6977C26.1903 54.9318 26.04 55.1961 25.9281 55.4813C25.7466 55.9387 25.6207 56.4143 25.5188 56.897L25.5107 56.8956ZM69.0545 107.793C68.6928 107.715 68.3078 107.659 67.9308 107.573C67.5756 107.49 67.216 107.433 66.8556 107.363C66.7551 107.346 66.7402 107.335 66.6416 107.354C66.2219 107.431 65.8492 107.51 65.4541 107.67C65.252 107.752 64.9588 107.921 64.8239 108.099C64.6389 108.337 64.6571 108.584 64.8751 108.793C64.9637 108.879 65.0642 108.944 65.1753 108.997C65.4648 109.135 65.763 109.254 66.0739 109.334C66.2616 109.381 66.449 109.431 66.6367 109.478C67.0069 109.572 67.3775 109.662 67.7529 109.726C67.9431 109.759 68.1318 109.801 68.321 109.84C68.4243 109.858 68.527 109.879 68.6303 109.897C68.8802 109.941 69.1306 109.982 69.3811 110.024C69.8185 110.101 70.2567 110.142 70.6998 110.139C71.0196 110.137 71.267 110.004 71.4085 109.71C71.5888 109.339 71.65 108.944 71.5961 108.535C71.5881 108.469 71.5655 108.406 71.5398 108.346C71.5105 108.274 71.4597 108.228 71.3809 108.214C71.2722 108.195 71.165 108.168 71.0558 108.152C70.8276 108.111 70.597 108.085 70.3688 108.044C69.9341 107.968 69.5008 107.883 69.0508 107.798L69.0545 107.793ZM25.6629 102.184C25.9726 102.238 27.2305 102.46 27.5592 102.518C27.9799 102.568 28.3664 102.605 28.7188 102.63C28.9621 102.648 29.2043 102.657 29.4479 102.641C29.703 102.625 29.8982 102.503 30.0411 102.296C30.1312 102.166 30.1593 102.023 30.1303 101.869C30.0975 101.69 30.0122 101.538 29.8805 101.411C29.8157 101.35 29.7432 101.301 29.6674 101.254C29.2368 100.979 28.7752 100.769 28.2909 100.608C27.9708 100.501 27.7851 100.427 27.4001 100.322C27.3077 100.306 27.1644 100.261 27.0739 100.234C26.9938 100.212 26.8817 100.228 26.799 100.236C26.6516 100.246 26.5014 100.256 26.3521 100.261C25.951 100.279 25.5564 100.229 25.1676 100.147C24.7353 100.057 24.3017 99.9579 23.8915 99.7905C23.7767 99.7423 23.7673 99.7322 23.7021 99.8158C23.4694 100.119 23.3085 100.507 23.2684 100.878C23.23 101.207 23.3568 101.472 23.6583 101.637C23.6912 101.657 23.7273 101.675 23.7607 101.692C24.028 101.828 24.1708 101.876 24.4646 101.942C24.9928 102.06 25.1249 102.089 25.6611 102.178L25.6629 102.184ZM52.3055 60.1491C51.7879 60.0662 51.3152 60.0304 50.8402 59.9914C50.2574 59.9446 49.6709 59.9027 49.0873 59.8921C48.7159 59.8853 48.3486 59.8877 47.9769 59.9144C47.2789 59.9648 46.5995 60.1163 45.9289 60.2973C45.8907 60.3073 45.8552 60.3179 45.8188 60.3338C45.7405 60.3648 45.7244 60.3927 45.7381 60.4734C45.7407 60.4906 45.7465 60.5056 45.749 60.5229C45.8745 60.9869 46.0004 61.4482 46.1259 61.9122C46.1382 61.9536 46.1533 61.9954 46.1683 62.0372C46.1821 62.0704 46.2096 62.0892 46.2463 62.0873C46.2685 62.0884 46.2917 62.0841 46.3117 62.082C46.5042 62.0545 46.6945 62.0237 46.8866 61.9988C47.1849 61.9591 47.482 61.9584 47.7802 61.983C48.1776 62.0167 48.5749 62.0196 48.9723 62.0058C49.2713 61.9942 49.5644 61.9368 49.8595 61.8993C50.215 61.8529 50.5698 61.7952 50.9271 61.7548C51.2558 61.7176 51.5865 61.7004 51.9192 61.6724C52.1353 61.6545 52.3486 61.6362 52.5642 61.6211C52.6322 61.6163 52.6946 61.5965 52.7471 61.5527C52.8289 61.486 52.8434 61.4354 52.7994 61.3353C52.7742 61.2722 52.7324 61.2228 52.6747 61.1847C52.5841 61.1268 52.4906 61.0851 52.3842 61.0691C52.2429 61.0442 52.0983 61.0383 51.9541 61.0297C51.4193 60.9969 50.8849 60.9614 50.3478 60.973C50.2212 60.9758 50.0955 60.9425 49.9714 60.915C49.9334 60.9083 49.8978 60.888 49.8648 60.8682C49.7737 60.813 49.7568 60.7345 49.8125 60.6409C49.8396 60.5981 49.8762 60.5654 49.9245 60.5459C50.0232 60.5102 50.1224 60.4718 50.226 60.4565C50.4503 60.4233 50.6755 60.4015 50.9035 60.4109C51.2177 60.4244 51.5323 60.4351 51.8483 60.4544C52.0921 60.4695 52.3338 60.4813 52.5732 60.5375C52.7913 60.5872 52.9965 60.6625 53.1855 60.7825C53.2783 60.8436 53.3607 60.9169 53.4197 61.0112C53.4545 61.0677 53.499 61.1175 53.537 61.1717C53.6346 61.3176 53.7731 61.342 53.9303 61.3082C54.0849 61.2739 54.1449 61.1559 54.09 61.0063C54.0599 60.9227 54.0117 60.8471 53.9501 60.7831C53.8153 60.6419 53.6558 60.5298 53.4714 60.4637C53.0763 60.3214 52.6751 60.1975 52.3033 60.1459L52.3055 60.1491ZM57.9939 61.1717C58.3963 61.2566 58.8152 61.3752 59.2302 61.5155C59.3677 61.5622 59.4978 61.6187 59.6098 61.7139C59.6661 61.7602 59.7123 61.8159 59.7243 61.8907C59.7384 61.9855 59.676 62.0696 59.5803 62.0723C59.5208 62.0758 59.4579 62.0675 59.3981 62.057C59.2682 62.0313 59.1392 62.0001 59.0107 61.9663C58.5837 61.8462 58.1598 61.724 57.727 61.6365C57.5514 61.5999 57.3745 61.6023 57.1992 61.6273C57.107 61.6418 57.0589 61.6921 57.0495 61.7771C57.0432 61.8291 57.0572 61.8763 57.0863 61.9178C57.1222 61.9689 57.1658 62.0074 57.2217 62.0396C57.326 62.0999 57.438 62.1477 57.55 62.1954C57.8762 62.3312 58.2085 62.4485 58.5328 62.5952C58.9271 62.7738 59.3007 62.9907 59.637 63.2598C60.2408 63.7438 60.9127 64.1112 61.5998 64.4561C61.757 64.5342 61.7752 64.5262 61.8672 64.3858C61.8745 64.3759 61.8791 64.3655 61.8833 64.3579C62.1781 63.9092 62.4472 63.4476 62.7519 63.0063C62.7624 62.9942 62.8155 62.9001 62.8238 62.8847C62.8685 62.8059 62.8135 62.8158 62.7451 62.759C62.7158 62.7343 62.6829 62.7145 62.6505 62.692C62.303 62.4545 61.9545 62.2224 61.6139 61.9778C60.9145 61.4797 60.1588 61.0947 59.3407 60.8414C59.0938 60.7643 58.8408 60.7057 58.5793 60.6792C58.3646 60.6581 58.1496 60.6538 57.9324 60.6462C57.4174 60.6281 56.9056 60.6554 56.3968 60.7446C56.0906 60.7969 55.7885 60.8583 55.4977 60.9665C55.4558 60.9815 55.414 60.9965 55.3766 61.0178C55.202 61.1185 55.1776 61.3044 55.3205 61.4471C55.3897 61.5152 55.4682 61.5626 55.567 61.5744C55.6381 61.5842 55.7102 61.5885 55.7818 61.5955C55.9136 61.6104 56.0165 61.567 56.0906 61.4486C56.1762 61.3127 56.3058 61.2292 56.451 61.1681C56.5957 61.1097 56.7471 61.0777 56.9027 61.0688C57.2653 61.046 57.6205 61.0807 57.9993 61.1726L57.9939 61.1717ZM25.5484 98.178C25.3109 98.1585 25.1108 98.1176 24.9103 98.0795C24.7423 98.0471 24.5734 98.0201 24.4049 97.9904C24.318 97.975 24.3038 97.9445 24.2949 98.0269C24.2606 98.3005 24.2173 98.6257 24.1885 98.9003C24.1856 98.9166 24.1882 98.9338 24.188 98.9506C24.1793 99.0162 24.1644 99.0527 24.2218 99.0768C24.3668 99.1443 24.5708 99.1943 24.7238 99.2324C25.2347 99.3533 25.7514 99.4416 26.2802 99.4453C26.3359 99.4468 26.39 99.4423 26.4467 99.4383C26.512 99.4331 26.5622 99.4028 26.5746 99.3322C26.5852 99.2726 26.6038 99.2143 26.6116 99.1542C26.6413 98.986 26.6655 98.8169 26.6897 98.6477C26.6993 98.5935 26.7089 98.5392 26.7184 98.485C26.7262 98.4248 26.7641 98.4007 26.7058 98.3821C26.684 98.3782 26.6025 98.3639 26.5808 98.36C26.2276 98.2978 25.8744 98.2355 25.5538 98.1789L25.5484 98.178Z" fill="black"/>
<path d="M74.849 61.6822C75.6109 61.825 76.2372 62.134 76.7844 62.6053C77.0058 62.7953 77.1687 63.031 77.2933 63.2935C77.4134 63.5496 77.4586 63.8177 77.4342 64.0987C77.429 64.1761 77.4238 64.2535 77.4185 64.3308C77.4153 64.3806 77.44 64.4157 77.4842 64.4347C77.505 64.444 77.5226 64.4555 77.5439 64.462C77.7777 64.534 77.9925 64.6502 78.2078 64.7637C78.2182 64.7683 78.2254 64.7752 78.2358 64.7798C78.3256 64.8264 78.3397 64.8261 78.4101 64.7602C78.4599 64.7159 78.5075 64.6683 78.5547 64.6235C78.9436 64.2446 79.4071 64.0942 79.9468 64.1474C80.5694 64.2068 81.1473 64.3926 81.674 64.726C81.8278 64.823 81.9769 64.9305 82.1155 65.05C82.3473 65.2447 82.5334 65.4761 82.6647 65.7481C82.7983 66.0234 82.8628 66.3089 82.8282 66.616C82.8225 66.6486 82.8249 66.6826 82.8192 66.7151C82.8055 66.8246 82.83 66.924 82.9049 67.0071C82.9189 67.0236 82.9328 67.04 82.9462 67.0591C82.9753 67.1006 82.9889 67.1506 82.983 67.1999C82.9727 67.2904 82.9361 67.3706 82.882 67.4394C82.842 67.4911 82.7869 67.5177 82.7243 67.5234C82.5908 67.5335 82.5017 67.6101 82.425 67.7112C82.3741 67.7777 82.3236 67.8416 82.2704 67.9049C81.917 68.3208 81.4629 68.5288 80.9247 68.5626C80.6356 68.5815 80.3507 68.5453 80.0734 68.4656C79.7215 68.3644 79.3839 68.2294 79.0709 68.0344C78.8315 67.8831 78.6099 67.7098 78.4301 67.4906C78.0448 67.0228 77.8809 66.4904 77.9735 65.8859C77.9879 65.8045 78.0022 65.7231 78.0166 65.6417C78.0242 65.5983 78.0319 65.5549 78.0341 65.5106C78.0403 65.4278 78.01 65.3609 77.9375 65.3117C77.7562 65.1959 77.5598 65.1025 77.3558 65.0358C77.255 65.004 77.1727 65.0259 77.1115 65.1186C77.0775 65.1685 77.0408 65.218 77.0041 65.2674C76.7263 65.6352 76.3769 65.9008 75.9246 66.0196C75.6868 66.0812 75.4463 66.0947 75.2012 66.0711C74.4603 65.9992 73.8181 65.7013 73.2629 65.2119C72.9813 64.9664 72.7822 64.6656 72.6593 64.3139C72.5788 64.0872 72.5501 63.8528 72.57 63.613C72.5823 63.4641 72.5891 63.3143 72.6231 63.1692C72.6505 63.0454 72.6348 62.928 72.5609 62.8227C72.5134 62.7583 72.5118 62.6881 72.5356 62.6168C72.5487 62.5744 72.5645 62.5324 72.5825 62.4936C72.6229 62.3917 72.6865 62.333 72.8084 62.3405C72.9249 62.347 73.0193 62.2882 73.0963 62.2011C73.4926 61.7647 73.9908 61.5925 74.5739 61.6533C74.684 61.6644 74.7937 61.6781 74.8539 61.6859L74.849 61.6822ZM73.1438 63.3617C73.0665 63.832 73.1865 64.2475 73.4984 64.6073C73.6335 64.7626 73.7865 64.8959 73.9569 65.0098C74.1971 65.1724 74.4564 65.2909 74.7313 65.3841C74.9401 65.4545 75.1541 65.5118 75.3806 65.4986C75.7027 65.4827 76.0006 65.3981 76.26 65.1978C76.5162 64.9996 76.6937 64.74 76.7976 64.4367C76.9387 64.0337 76.8796 63.6541 76.6269 63.3075C76.5342 63.182 76.4277 63.071 76.308 62.9715C75.8561 62.5954 75.3371 62.3612 74.7672 62.2412C74.5133 62.188 74.2609 62.2051 74.0126 62.2787C73.8444 62.3274 73.6953 62.4102 73.5749 62.5372C73.3519 62.7691 73.2007 63.0389 73.1438 63.3617ZM80.1722 64.7437C79.9317 64.7097 79.734 64.7028 79.5364 64.7434C79.321 64.7894 79.1283 64.8812 78.9718 65.0382C78.4641 65.55 78.3304 66.3879 78.822 67.0312C78.9627 67.2182 79.1346 67.3715 79.3302 67.5011C79.5484 67.6459 79.7861 67.7437 80.0301 67.8371C80.2376 67.9156 80.4526 67.9675 80.6752 67.976C81.2001 68.0015 81.6232 67.8104 81.9386 67.3877C82.0268 67.269 82.1028 67.1398 82.1662 67.0027C82.2361 66.8444 82.2816 66.6819 82.2732 66.507C82.2656 66.3434 82.2307 66.1918 82.1613 66.0453C82.0532 65.8165 81.8994 65.6244 81.7063 65.4645C81.4884 65.2862 81.249 65.1349 80.9961 65.012C80.7197 64.8794 80.4303 64.7892 80.1732 64.7383L80.1722 64.7437Z" fill="black"/>
<path d="M76.6651 69.1093C75.9736 68.9482 75.3778 68.625 74.9112 68.0785C74.8228 67.9762 74.7589 67.8615 74.7348 67.7285C74.7077 67.5643 74.8176 67.4495 74.9839 67.4592C75.0587 67.464 75.1228 67.4977 75.18 67.5386C75.2675 67.5987 75.3417 67.6705 75.4117 67.75C75.7906 68.1748 76.276 68.4086 76.8232 68.5303C76.9635 68.5606 77.1067 68.5747 77.2485 68.5969C77.3245 68.6103 77.4006 68.6237 77.4733 68.6561C77.6314 68.7287 77.6634 68.8966 77.5408 69.0204C77.463 69.0962 77.3687 69.1383 77.2584 69.144C77.0601 69.1566 76.882 69.1504 76.6619 69.1116L76.6651 69.1093Z" fill="black"/>
<path d="M76.7659 66.3499C77.0712 66.3981 77.2941 66.5158 77.471 66.7203C77.5616 66.8258 77.6208 66.9509 77.6558 67.0858C77.6791 67.1766 77.6638 67.2634 77.6326 67.3446C77.5862 67.465 77.4788 67.502 77.3628 67.4452C77.3059 67.4184 77.259 67.3822 77.2328 67.3244C77.2163 67.2907 77.1944 67.2561 77.1779 67.2224C77.0783 67.0091 76.901 66.9023 76.6806 66.8495C76.6055 66.8306 76.5285 66.8227 76.4513 66.8314C76.3801 66.8384 76.3075 66.8368 76.2372 66.8384C76.1923 66.8389 76.1488 66.8312 76.1109 66.8078C76.0238 66.7616 75.9915 66.6748 76.0327 66.5842C76.0568 66.5269 76.0985 66.4811 76.1519 66.4486C76.2239 66.4054 76.2972 66.3707 76.3808 66.3575C76.5221 66.3349 76.6651 66.3181 76.7714 66.3509L76.7659 66.3499Z" fill="black"/>
<path d="M81.0283 63.432C81.2699 63.4914 81.4988 63.5597 81.7077 63.6777C81.848 63.7556 81.9888 63.8307 82.114 63.9311C82.1923 63.9953 82.2611 64.0661 82.3202 64.1437C82.3816 64.2244 82.3967 64.3138 82.3686 64.4095C82.3466 64.4868 82.2868 64.5238 82.2026 64.5089C82.1238 64.495 82.0543 64.4604 81.9926 64.4132C81.8984 64.3434 81.7992 64.2868 81.6972 64.2296C81.3994 64.0596 81.0794 63.9361 80.7548 63.8229C80.6861 63.7996 80.6206 63.7741 80.5643 63.7278C80.4937 63.6678 80.4868 63.5799 80.5495 63.5098C80.6013 63.4546 80.6673 63.4299 80.739 63.4202C80.7762 63.4156 80.8162 63.4114 80.8552 63.4127C80.9164 63.4151 80.9762 63.4256 81.026 63.4288L81.0283 63.432Z" fill="black"/>
<path d="M75.6047 61.0661C75.8785 61.1339 76.1406 61.2361 76.3832 61.3851C76.487 61.4482 76.5834 61.5211 76.683 61.5918C76.7654 61.6483 76.8337 61.7219 76.8828 61.8088C76.902 61.843 76.9212 61.8771 76.9285 61.9148C76.9594 62.0573 76.8499 62.1386 76.7426 62.1113C76.6811 62.0949 76.6301 62.0663 76.5769 62.0346C76.4019 61.931 76.2278 61.822 76.0486 61.7261C75.8261 61.6057 75.5875 61.5133 75.3433 61.4367C75.285 61.418 75.2257 61.4048 75.1761 61.3681C75.1437 61.3455 75.1107 61.3258 75.0852 61.2961C75.0268 61.2299 75.0416 61.1458 75.1169 61.1003C75.1734 61.0655 75.238 61.0489 75.3056 61.0469C75.4045 61.0419 75.5042 61.0483 75.6047 61.0661Z" fill="black"/>
<path d="M69.8188 63.2985C69.8264 63.16 69.9022 63.0475 69.989 62.9369C70.0257 62.8874 70.0719 62.848 70.1247 62.8182C70.168 62.7951 70.2131 62.7778 70.2661 62.7788C70.3414 62.7809 70.3814 62.8243 70.3657 62.8971C70.36 62.9296 70.3461 62.9607 70.3354 62.9896C70.3262 63.0103 70.3147 63.0279 70.3005 63.045C70.1655 63.2225 70.1178 63.4295 70.1153 63.65C70.1157 63.7116 70.1111 63.7695 70.0815 63.8258C70.0529 63.8767 70.016 63.8954 69.959 63.8853C69.8883 63.8729 69.8398 63.8308 69.8186 63.7599C69.7799 63.63 69.7834 63.4992 69.8009 63.368C69.8047 63.3463 69.8113 63.3251 69.8192 63.2957L69.8188 63.2985Z" fill="black"/>
<path d="M84.0731 69.0396C84.0505 69.1363 84.0168 69.2478 83.9574 69.3464C83.9012 69.4428 83.8251 69.5244 83.7334 69.5838C83.6513 69.6364 83.5609 69.6568 83.4655 69.626C83.418 69.6093 83.3956 69.5774 83.4047 69.5258C83.4147 69.4689 83.4397 69.4229 83.4804 69.3826C83.6337 69.2278 83.7442 69.0459 83.8015 68.8323C83.8053 68.8106 83.8173 68.7903 83.8261 68.7723C83.8585 68.6997 83.8964 68.6756 83.9648 68.6848C84.0413 68.6955 84.0795 68.733 84.0906 68.8133C84.0952 68.8505 84.0967 68.8899 84.0954 68.9288C84.0924 68.9619 84.0839 68.9939 84.0753 69.0428L84.0731 69.0396Z" fill="black"/>
<path d="M28.9053 55.181C29.6688 55.3156 30.1638 55.6854 30.5091 56.2693C30.5756 56.3845 30.6362 56.5015 30.6995 56.6189C30.7397 56.6931 30.7501 56.6977 30.8309 56.684C31.0444 56.649 31.2569 56.6193 31.472 56.6069C31.5342 56.6039 31.5725 56.5771 31.5921 56.5134C31.6314 56.3861 31.6707 56.2588 31.7176 56.1356C32.0309 55.2958 32.8807 54.7185 33.7749 54.7307C34.1273 54.7341 34.4667 54.8108 34.7888 54.9543C35.1737 55.1228 35.4723 55.3992 35.6958 55.7519C35.7723 55.8744 35.8364 56.0032 35.9069 56.1275C35.9284 56.1649 35.9493 56.2049 35.9703 56.245C35.9935 56.2882 36.0291 56.3085 36.0794 56.309C36.1239 56.3112 36.1692 56.308 36.2105 56.3125C36.3102 56.3189 36.3732 56.3747 36.4013 56.4692C36.4199 56.5228 36.4217 56.5763 36.4175 56.6315C36.4112 56.731 36.3657 56.7985 36.2751 56.8357C36.266 56.8397 36.2564 56.8464 36.2446 56.8499C36.1083 56.8762 36.0797 56.9747 36.07 57.0932C36.0541 57.3421 35.9948 57.5834 35.906 57.8166C35.8103 58.0738 35.6694 58.3007 35.4825 58.5027C35.2338 58.7693 34.9376 58.9716 34.5999 59.1078C34.1924 59.2737 33.7728 59.2864 33.3474 59.189C33.1211 59.1379 32.9028 59.0575 32.6951 58.9482C32.2564 58.7198 31.9411 58.3789 31.7439 57.9246C31.6897 57.8032 31.6473 57.6782 31.614 57.5493C31.5933 57.4757 31.5732 57.3995 31.5525 57.3259C31.5138 57.196 31.4846 57.1713 31.3562 57.1682C31.2274 57.1679 31.1017 57.1821 30.979 57.2108C30.8858 57.2307 30.8368 57.2864 30.8232 57.3791C30.8001 57.526 30.7716 57.672 30.7457 57.8185C30.5875 58.6045 30.1331 59.1481 29.4063 59.473C29.1659 59.5816 28.9115 59.6263 28.6475 59.6301C28.2379 59.6334 27.8445 59.5612 27.4765 59.3761C27.2477 59.2602 27.045 59.107 26.8739 58.9174C26.8223 58.8607 26.7743 58.7991 26.7258 58.7403C26.5217 58.5001 26.3913 58.2226 26.3343 57.9105C26.3287 57.8787 26.3204 57.8465 26.3153 57.812C26.2856 57.6782 26.2856 57.6782 26.1448 57.6505C26.0172 57.628 25.934 57.5434 25.9102 57.4246C25.889 57.3062 25.9427 57.1926 26.0511 57.1334C26.0981 57.1053 26.15 57.0809 26.2005 57.0646C26.286 57.0405 26.3291 56.9866 26.3494 56.9035C26.3561 56.8655 26.3682 56.8285 26.3776 56.791C26.5305 56.1467 26.9061 55.6843 27.5069 55.4071C27.8056 55.2696 28.1145 55.1702 28.4448 55.1557C28.6286 55.1462 28.808 55.1611 28.9031 55.1778L28.9053 55.181ZM26.8584 57.0827C26.8355 57.2129 26.8207 57.3446 26.8335 57.4783C26.8507 57.6827 26.8679 57.8871 26.9642 58.0719C27.2855 58.6963 27.7819 59.0579 28.4964 59.0888C29.322 59.1253 30.1039 58.5192 30.2327 57.6302C30.3004 57.1666 30.1905 56.7417 29.9095 56.3649C29.6756 56.0552 29.3751 55.8372 28.9973 55.7398C28.5231 55.6171 28.0757 55.692 27.6571 55.937C27.2167 56.195 26.9506 56.576 26.8621 57.0778L26.8584 57.0827ZM32.1248 56.6856C31.9338 57.7371 32.7362 58.5247 33.4964 58.6615C34.3784 58.8226 35.3293 58.196 35.4905 57.2819C35.6388 56.441 35.0693 55.4764 34.1076 55.3068C33.173 55.142 32.2724 55.7691 32.1248 56.6856Z" fill="black"/>
<path d="M30.8759 61.3403C30.7413 61.325 30.6168 61.3002 30.5003 61.2461C30.4511 61.2235 30.4028 61.1954 30.3545 61.1673C30.3018 61.1328 30.2687 61.0822 30.2511 61.0232C30.2146 60.8965 30.2708 60.8001 30.4007 60.7783C30.4875 60.7628 30.5773 60.7619 30.6647 60.7745C30.9378 60.8143 31.2162 60.8242 31.4912 60.8056C31.7803 60.7866 32.0592 60.7295 32.3243 60.6084C32.4587 60.5454 32.5975 60.4888 32.7341 60.429C32.807 60.3971 32.8819 60.3851 32.9602 60.4017C33.0761 60.4278 33.1261 60.5093 33.0947 60.624C33.0768 60.6936 33.0377 60.7566 32.9892 60.8096C32.9122 60.8967 32.8258 60.9738 32.7232 61.0312C32.3538 61.2513 31.955 61.3684 31.5255 61.3738C31.3037 61.3766 31.0818 61.3794 30.8727 61.3426L30.8759 61.3403Z" fill="black"/>
<path d="M31.5704 58.8619C31.7117 58.8868 31.8392 58.9261 31.9575 58.9861C32.037 59.028 32.1059 59.0821 32.1642 59.1484C32.2342 59.2278 32.2565 59.3241 32.2356 59.4267C32.2212 59.508 32.1637 59.5482 32.0803 59.5447C32.0245 59.5433 31.9716 59.5256 31.9224 59.5029C31.8371 59.4627 31.7512 59.4252 31.6603 59.4007C31.5961 59.3838 31.5304 59.375 31.4637 59.3717C31.3245 59.3667 31.2031 59.404 31.097 59.4972C31.0344 59.5505 30.9718 59.6038 30.9065 59.6566C30.8635 59.6937 30.8148 59.7159 30.7576 59.7226C30.6209 59.7349 30.5346 59.6525 30.5449 59.5145C30.5556 59.3905 30.6006 59.2782 30.6795 59.1802C30.8172 59.0032 30.9969 58.8894 31.2208 58.859C31.3411 58.8438 31.4632 58.8346 31.5736 58.8596L31.5704 58.8619Z" fill="black"/>
<path d="M34.1502 53.8767C34.2199 53.8946 34.29 53.9098 34.3587 53.9331C34.4329 53.9574 34.4988 53.9969 34.5494 54.059C34.6207 54.1471 34.5986 54.2411 34.4902 54.2835C34.412 54.3145 34.3271 54.3191 34.2451 54.3074C34.0476 54.2838 33.8475 54.2905 33.6502 54.2976C33.3907 54.3078 33.1358 54.3551 32.8809 54.4025C32.8087 54.4149 32.7397 54.4251 32.6673 54.4068C32.5813 54.386 32.5402 54.3172 32.5637 54.2319C32.5745 54.1862 32.6029 54.1521 32.6359 54.1243C32.7154 54.0545 32.8061 54.0005 32.9067 53.9707C33.2705 53.8615 33.6426 53.832 34.022 53.8569C34.0664 53.8592 34.109 53.8723 34.1524 53.8799L34.1534 53.8745L34.1502 53.8767Z" fill="black"/>
<path d="M28.793 54.4201C28.8903 54.4401 28.9664 54.4535 29.0345 54.4962C29.0674 54.516 29.0998 54.5385 29.1222 54.5705C29.1804 54.6534 29.1578 54.7501 29.0667 54.79C29.0153 54.8117 28.9608 54.8189 28.9068 54.8233C28.7257 54.8334 28.5424 54.8402 28.3604 54.8557C28.0731 54.8805 27.7941 54.9376 27.518 55.026C27.4616 55.044 27.4012 55.0529 27.3403 55.0645C27.3026 55.0719 27.2641 55.0679 27.2275 55.053C27.1516 55.0229 27.1218 54.9533 27.1493 54.877C27.1804 54.7958 27.2358 54.7357 27.3079 54.6924C27.4397 54.6122 27.58 54.5474 27.7323 54.51C28.04 54.4328 28.3522 54.4095 28.6688 54.4094C28.7191 54.4099 28.768 54.4185 28.7957 54.4206L28.793 54.4201Z" fill="black"/>
<path d="M24.8933 59.5723C24.8444 59.5636 24.8042 59.537 24.7687 59.5C24.7189 59.4492 24.6791 59.389 24.6488 59.3222C24.5631 59.1253 24.5405 58.9199 24.5637 58.7087C24.5725 58.6431 24.6003 58.5809 24.6379 58.526C24.6683 58.481 24.7134 58.4637 24.7672 58.476C24.8211 58.4883 24.8543 58.5222 24.8611 58.5793C24.8647 58.6219 24.868 58.6672 24.863 58.7111C24.8498 58.9129 24.8776 59.1052 24.9657 59.2886C24.9906 59.3377 25.0097 59.3886 25.0223 59.444C25.0446 59.5402 24.9879 59.5917 24.8878 59.5713L24.8933 59.5723Z" fill="black"/>
<path d="M38.3233 58.0274C38.3125 58.1206 38.2991 58.1965 38.2541 58.2613C38.232 58.291 38.2068 58.3229 38.1775 58.3457C38.1414 58.3757 38.0983 58.3821 38.0545 58.3604C38.0129 58.3419 38.0088 58.302 38.01 58.263C38.0134 58.1965 38.0162 58.1327 38.025 58.0671C38.0459 57.9169 38.0436 57.7711 37.9904 57.6275C37.9679 57.5648 37.954 57.5008 37.96 57.4347C37.9643 57.3628 38.0181 57.3275 38.0868 57.3508C38.1583 57.3746 38.2086 57.4226 38.2448 57.4877C38.3305 57.6371 38.3467 57.7994 38.3343 57.965C38.3295 57.9921 38.3247 58.0193 38.3228 58.0301L38.3233 58.0274Z" fill="black"/>
<path d="M75.7383 63.8053C75.6852 64.1063 75.5117 64.2799 75.2203 64.3124C74.9747 64.3391 74.7457 64.2875 74.564 64.11C74.2341 63.7889 74.3603 63.4224 74.5753 63.2198C74.8242 62.984 75.1868 62.9613 75.4566 63.1627C75.5282 63.2172 75.5939 63.2736 75.6454 63.347C75.7489 63.4911 75.7742 63.6494 75.7405 63.8085L75.7383 63.8053Z" fill="black"/>
<path d="M80.3802 65.4994C80.68 65.5466 80.8673 65.6915 80.9657 65.9438C81.0278 66.1002 81.02 66.2555 80.9429 66.4069C80.7752 66.7381 80.4003 66.879 80.0592 66.7321C80.0226 66.7173 79.9892 66.7002 79.9562 66.6804C79.682 66.5202 79.5743 66.2411 79.66 65.9457C79.7363 65.6879 80.0137 65.4487 80.3449 65.4931C80.3666 65.497 80.3888 65.4981 80.3802 65.4994Z" fill="black"/>
<path d="M29.2027 57.2613C29.1489 57.5818 28.9333 57.8039 28.6295 57.8427C28.4887 57.8626 28.3539 57.8332 28.233 57.756C27.9129 57.5541 27.7893 57.1268 27.9543 56.795C28.1118 56.4732 28.5131 56.3426 28.8308 56.5105C29.1048 56.6567 29.2535 56.957 29.2031 57.2586L29.2027 57.2613Z" fill="black"/>
<path d="M34.436 56.8161C34.3293 57.3735 33.7545 57.4399 33.4479 57.1929C33.1463 56.9495 33.0567 56.5841 33.2414 56.2195C33.3651 55.9784 33.6936 55.863 33.9676 55.9616C34.2153 56.05 34.3729 56.2205 34.4205 56.475C34.4335 56.5444 34.441 56.6129 34.4426 56.6831C34.4444 56.7365 34.4376 56.7912 34.4355 56.8189L34.436 56.8161Z" fill="black"/>
<path d="M75.135 103.495C75.1465 103.43 75.1684 103.37 75.2029 103.317C75.2374 103.264 75.2786 103.221 75.327 103.185C75.3754 103.149 75.4327 103.125 75.4941 103.111C75.5555 103.097 75.6171 103.096 75.6824 103.108C75.7476 103.119 75.8081 103.141 75.8582 103.175C75.9109 103.21 75.9541 103.251 75.9904 103.299C76.0267 103.348 76.0502 103.405 76.0646 103.466C76.079 103.527 76.0789 103.592 76.0701 103.657C76.0586 103.722 76.0367 103.783 76.005 103.836C75.9732 103.889 75.932 103.932 75.8809 103.968C75.8325 104.004 75.7751 104.028 75.7169 104.04C75.6588 104.052 75.5939 104.054 75.5287 104.043C75.4635 104.031 75.4029 104.009 75.3502 103.975C75.2974 103.941 75.2542 103.899 75.218 103.851C75.1821 103.8 75.1581 103.745 75.1437 103.684C75.1293 103.623 75.129 103.561 75.1382 103.493L75.135 103.495ZM75.1948 103.506C75.1848 103.563 75.1861 103.619 75.1992 103.671C75.2123 103.724 75.2345 103.773 75.2632 103.817C75.2918 103.861 75.3332 103.896 75.3787 103.924C75.4243 103.952 75.4767 103.972 75.5338 103.982C75.5908 103.992 75.6471 103.991 75.6998 103.978C75.7525 103.965 75.8008 103.945 75.8423 103.916C75.8839 103.887 75.9214 103.849 75.949 103.804C75.9767 103.758 75.9971 103.706 76.0071 103.649C76.0172 103.592 76.0159 103.536 76.0032 103.48C75.9901 103.428 75.9679 103.379 75.9388 103.338C75.9069 103.296 75.8683 103.261 75.8232 103.231C75.7776 103.203 75.7252 103.182 75.6682 103.172C75.6111 103.162 75.5549 103.164 75.5021 103.177C75.4494 103.19 75.4011 103.209 75.3569 103.238C75.3126 103.266 75.2778 103.305 75.247 103.353C75.2166 103.398 75.1989 103.45 75.1889 103.507L75.1948 103.506ZM75.3282 103.543C75.3378 103.489 75.3573 103.442 75.3862 103.405C75.4156 103.366 75.4539 103.339 75.499 103.322C75.544 103.304 75.5921 103.302 75.647 103.309C75.7018 103.315 75.7456 103.337 75.782 103.369C75.8185 103.4 75.8453 103.439 75.8626 103.484C75.8794 103.531 75.8821 103.579 75.8726 103.634C75.8644 103.68 75.8486 103.722 75.8229 103.756C75.7972 103.791 75.7675 103.816 75.7283 103.832L75.6874 103.746C75.7147 103.734 75.7376 103.716 75.7527 103.694C75.7679 103.671 75.7781 103.645 75.7829 103.618C75.7887 103.585 75.7858 103.554 75.7742 103.524C75.7627 103.494 75.7443 103.471 75.72 103.45C75.6957 103.429 75.6646 103.415 75.6288 103.412C75.5907 103.405 75.5594 103.408 75.5294 103.419C75.4993 103.431 75.4738 103.449 75.4554 103.473C75.4343 103.498 75.4236 103.526 75.4179 103.559C75.4131 103.586 75.4138 103.614 75.423 103.641C75.4296 103.667 75.4453 103.69 75.4664 103.713L75.4014 103.78C75.3726 103.752 75.3502 103.72 75.3379 103.679C75.3256 103.638 75.3219 103.595 75.33 103.549L75.3282 103.543Z" fill="#231815"/>
<path d="M74.9697 104.481L75.8971 104.639L75.878 104.748L75.0142 105.23L75.0242 105.173L75.7859 105.302L75.7624 105.435L74.835 105.277L74.8542 105.168L75.7207 104.686L75.7107 104.743L74.949 104.615L74.9725 104.482L74.9697 104.481Z" fill="#231815"/>
<path d="M74.7098 105.971C74.7223 105.9 74.7469 105.84 74.789 105.792C74.8285 105.743 74.8801 105.704 74.9397 105.684C74.9993 105.664 75.0651 105.656 75.133 105.668C75.2037 105.68 75.2606 105.707 75.3096 105.747C75.3582 105.789 75.3918 105.837 75.4144 105.899C75.4347 105.959 75.44 106.024 75.4303 106.095C75.4178 106.166 75.3933 106.226 75.3538 106.275C75.3144 106.324 75.266 106.36 75.2059 106.383C75.1458 106.406 75.0832 106.412 75.0125 106.399C74.9419 106.387 74.8845 106.363 74.8359 106.32C74.7868 106.281 74.751 106.23 74.7307 106.17C74.7104 106.111 74.7051 106.046 74.7175 105.975L74.7098 105.971ZM74.8212 105.991C74.8131 106.037 74.8173 106.077 74.8328 106.116C74.8483 106.155 74.8707 106.187 74.9049 106.215C74.9391 106.243 74.9811 106.259 75.03 106.268C75.0817 106.277 75.1243 106.273 75.1662 106.258C75.2081 106.243 75.24 106.221 75.2652 106.189C75.2905 106.157 75.3085 106.118 75.3167 106.072C75.3248 106.026 75.3206 105.986 75.3078 105.948C75.2923 105.909 75.2699 105.877 75.2357 105.848C75.2015 105.82 75.1599 105.801 75.1106 105.795C75.0616 105.787 75.0163 105.79 74.9744 105.805C74.9325 105.82 74.9006 105.842 74.8726 105.874C74.8474 105.906 74.8294 105.944 74.8217 105.988L74.8212 105.991Z" fill="#231815"/>
<path d="M74.6045 106.643L75.3064 106.762L75.2849 106.884L75.0947 106.85L75.1455 106.848C75.1911 106.875 75.2234 106.915 75.2397 106.965C75.2587 107.016 75.2596 107.075 75.2508 107.14L75.1285 107.119C75.1285 107.119 75.1305 107.108 75.1309 107.105C75.1314 107.103 75.1328 107.095 75.1333 107.092C75.1453 107.024 75.1331 106.966 75.0991 106.921C75.0655 106.873 75.0091 106.843 74.9325 106.833L74.582 106.771L74.604 106.646L74.6045 106.643Z" fill="#231815"/>
<path d="M74.4889 107.319L75.1908 107.437L75.1683 107.565L74.4664 107.447L74.4889 107.319ZM75.3156 107.524C75.3199 107.499 75.3319 107.479 75.3511 107.466C75.3702 107.452 75.3907 107.447 75.4124 107.451C75.4369 107.456 75.4545 107.467 75.4679 107.486C75.4813 107.505 75.4856 107.528 75.4813 107.553C75.477 107.577 75.4651 107.598 75.4486 107.611C75.4294 107.625 75.409 107.63 75.3872 107.626C75.3628 107.621 75.3452 107.61 75.3318 107.591C75.3183 107.572 75.3135 107.551 75.3183 107.524L75.3156 107.524Z" fill="#231815"/>
<path d="M74.3551 108.059C74.3675 107.989 74.3961 107.938 74.4413 107.904C74.486 107.872 74.5442 107.86 74.6148 107.873L75.2597 107.981L75.2372 108.108L74.5978 108.001C74.5597 107.994 74.5279 108 74.5056 108.016C74.4832 108.031 74.4676 108.057 74.4613 108.092C74.4542 108.132 74.4593 108.167 74.4767 108.195L74.3772 108.22C74.3642 108.198 74.3549 108.171 74.3511 108.145C74.3477 108.117 74.3471 108.088 74.3523 108.059L74.3551 108.059ZM75.0189 107.821L75.1249 107.84L75.0492 108.285L74.9432 108.266L75.0189 107.821Z" fill="#231815"/>
<path d="M74.2471 108.703C74.2561 108.651 74.2724 108.607 74.2954 108.572C74.3184 108.537 74.3486 108.508 74.385 108.492C74.4187 108.476 74.4587 108.472 74.4967 108.479C74.5348 108.485 74.5686 108.5 74.5952 108.524C74.6217 108.548 74.6441 108.58 74.6532 108.624C74.6651 108.668 74.6637 108.723 74.6539 108.794L74.6147 109.017L74.5251 109.001L74.5633 108.784C74.5743 108.722 74.5684 108.676 74.5532 108.651C74.5353 108.625 74.5128 108.61 74.4829 108.605C74.4476 108.599 74.418 108.607 74.3942 108.631C74.3677 108.654 74.3528 108.691 74.3442 108.74C74.3356 108.789 74.3393 108.831 74.3548 108.87C74.3703 108.909 74.3954 108.942 74.4338 108.963L74.3421 108.974C74.3042 108.951 74.2769 108.915 74.2569 108.87C74.2396 108.825 74.2356 108.768 74.2471 108.703ZM74.2173 108.936L74.3667 108.962L74.3953 108.959L74.648 109.003C74.7023 109.013 74.7464 109.001 74.7815 108.976C74.8172 108.949 74.8389 108.905 74.8499 108.843C74.8571 108.802 74.8561 108.76 74.8497 108.717C74.8433 108.674 74.83 108.638 74.8103 108.607L74.915 108.569C74.9386 108.61 74.9527 108.657 74.9599 108.711C74.9671 108.766 74.9662 108.819 74.9562 108.876C74.9394 108.971 74.9043 109.043 74.849 109.086C74.7937 109.129 74.7183 109.144 74.6205 109.127L74.1967 109.052L74.2173 108.936Z" fill="#231815"/>
<path d="M74.1319 109.424L75.1163 109.592L75.0938 109.719L74.1121 109.552L74.1346 109.424L74.1319 109.424ZM74.0403 109.958L74.4287 109.742L74.5176 109.841L74.0153 110.116L74.0431 109.959L74.0403 109.958ZM74.2826 109.554L74.4456 109.582L74.747 110.05L74.7198 110.204L74.4695 109.844L74.4217 109.766L74.2821 109.556L74.2826 109.554Z" fill="#231815"/>
<path d="M73.9096 110.682C73.923 110.606 73.9481 110.544 73.9907 110.492C74.0306 110.441 74.0818 110.405 74.1418 110.382C74.2019 110.359 74.2645 110.353 74.3352 110.366C74.4058 110.378 74.4632 110.402 74.5123 110.442C74.5613 110.481 74.5976 110.529 74.618 110.589C74.6383 110.649 74.6441 110.711 74.6326 110.776C74.6206 110.844 74.5965 110.901 74.5575 110.948C74.5186 110.994 74.4706 111.027 74.411 111.048C74.3514 111.068 74.2861 111.073 74.2127 111.06C74.2073 111.059 74.2019 111.058 74.1937 111.057C74.1856 111.055 74.1801 111.054 74.1747 111.053L74.2799 110.457L74.3669 110.472L74.2736 111.001L74.2555 110.945C74.3017 110.953 74.3412 110.951 74.3803 110.936C74.4195 110.92 74.4509 110.901 74.4762 110.869C74.5014 110.837 74.519 110.801 74.5271 110.755C74.5348 110.711 74.5311 110.669 74.5178 110.633C74.505 110.594 74.4799 110.562 74.4479 110.537C74.4159 110.511 74.3771 110.493 74.3304 110.488L74.3087 110.484C74.2625 110.476 74.2171 110.479 74.178 110.495C74.1388 110.51 74.1037 110.535 74.0775 110.572C74.0518 110.607 74.0328 110.651 74.0242 110.7C74.017 110.74 74.0185 110.78 74.0258 110.817C74.0337 110.852 74.0501 110.886 74.0752 110.918L73.9813 110.975C73.949 110.935 73.9285 110.893 73.9177 110.843C73.9068 110.794 73.9055 110.737 73.9155 110.68L73.9096 110.682Z" fill="#231815"/>
<path d="M12.607 142.516C12.6778 142.115 12.8415 141.822 13.0963 141.632C13.3511 141.442 13.6506 141.38 13.9902 141.44C14.2129 141.479 14.4044 141.569 14.5651 141.707C14.7257 141.844 14.8353 142.017 14.8969 142.224C14.9585 142.43 14.9664 142.656 14.9238 142.897C14.8813 143.138 14.7931 143.352 14.6587 143.527C14.5242 143.702 14.3598 143.824 14.1601 143.892C13.9604 143.96 13.7561 143.975 13.5469 143.938C13.3187 143.898 13.1245 143.807 12.9648 143.665C12.8047 143.525 12.6956 143.349 12.6367 143.143C12.5778 142.936 12.567 142.727 12.6043 142.516L12.607 142.516ZM12.9348 142.58C12.8836 142.87 12.9218 143.114 13.0502 143.308C13.1781 143.504 13.3589 143.622 13.5952 143.664C13.8316 143.706 14.0502 143.657 14.2347 143.517C14.4192 143.376 14.5406 143.148 14.5951 142.839C14.6295 142.644 14.6275 142.464 14.5855 142.306C14.5461 142.148 14.4684 142.017 14.355 141.913C14.2417 141.809 14.1049 141.743 13.9446 141.715C13.7191 141.675 13.5096 141.719 13.3193 141.845C13.129 141.971 13.0016 142.217 12.9375 142.58L12.9348 142.58Z" fill="#231815"/>
<path d="M16.3903 144.397L16.1748 141.87L16.5036 141.928L16.5915 143.574C16.6031 143.747 16.6065 143.918 16.6077 144.086C16.7156 143.839 16.7772 143.696 16.7953 143.658L17.5419 142.108L17.9276 142.176L18.0575 143.458C18.0908 143.777 18.1031 144.073 18.0943 144.345C18.1509 144.199 18.2228 144.03 18.3066 143.84L18.9605 142.356L19.2811 142.412L18.1925 144.71L17.8828 144.655L17.6963 142.726C17.6801 142.564 17.6719 142.467 17.67 142.43C17.6259 142.537 17.5847 142.628 17.5496 142.7L16.7119 144.448L16.3858 144.391L16.3903 144.397Z" fill="#231815"/>
<path d="M19.9982 145.034L20.4238 142.619L20.7526 142.677L21.687 144.797L22.0213 142.901L22.3283 142.955L21.9026 145.369L21.5739 145.311L20.6395 143.192L20.3052 145.088L19.9982 145.034Z" fill="#231815"/>
<path d="M23.2853 145.613L23.7109 143.199L24.545 143.346C24.7325 143.379 24.8745 143.415 24.968 143.457C25.1009 143.514 25.2076 143.592 25.2933 143.693C25.4019 143.824 25.4731 143.977 25.5059 144.156C25.5387 144.335 25.5378 144.531 25.4996 144.748C25.4671 144.932 25.4171 145.088 25.3483 145.225C25.2795 145.361 25.205 145.465 25.1204 145.548C25.0362 145.628 24.9499 145.688 24.8616 145.729C24.7732 145.769 24.6683 145.793 24.5521 145.8C24.4332 145.807 24.3031 145.798 24.1564 145.772L23.2843 145.619L23.2853 145.613ZM23.6561 145.385L24.1723 145.476C24.3325 145.504 24.4599 145.513 24.5548 145.499C24.6497 145.485 24.7303 145.457 24.7942 145.412C24.8836 145.35 24.9611 145.26 25.0248 145.137C25.0908 145.017 25.137 144.866 25.1691 144.684C25.2136 144.432 25.2073 144.229 25.147 144.079C25.0866 143.928 25.0019 143.821 24.8932 143.754C24.812 143.706 24.679 143.666 24.4889 143.633L23.9808 143.543L23.6556 145.388L23.6561 145.385Z" fill="#231815"/>
<path d="M26.3009 146.145L27.6557 143.895L28.0007 143.955L28.564 146.544L28.1999 146.48L28.0465 145.698L27.0359 145.519L26.6405 146.205L26.3009 146.145ZM27.1737 145.278L27.9942 145.423L27.8592 144.711C27.819 144.494 27.7911 144.318 27.7765 144.179C27.7193 144.328 27.6486 144.475 27.5648 144.617L27.1737 145.278Z" fill="#231815"/>
<path d="M30.346 146.858L30.5263 145.836L29.8398 144.28L30.2283 144.348L30.5756 145.159C30.6386 145.31 30.6989 145.461 30.7479 145.612C30.8437 145.497 30.9555 145.372 31.0865 145.232L31.6791 144.604L32.0513 144.67L30.8415 145.891L30.6612 146.914L30.3406 146.857L30.346 146.858Z" fill="#231815"/>
<path d="M32.7894 146.489L33.0957 146.515C33.0878 146.64 33.1032 146.743 33.1437 146.831C33.1814 146.919 33.2519 146.996 33.3552 147.062C33.4584 147.127 33.5764 147.173 33.7149 147.198C33.8372 147.219 33.9492 147.219 34.0478 147.2C34.1464 147.181 34.2261 147.142 34.2833 147.088C34.3405 147.034 34.3747 146.967 34.3876 146.894C34.4005 146.821 34.3907 146.749 34.3573 146.684C34.3239 146.62 34.2586 146.561 34.1653 146.502C34.1044 146.466 33.9676 146.4 33.7566 146.31C33.5434 146.217 33.3971 146.14 33.3161 146.076C33.2125 145.996 33.139 145.905 33.0977 145.805C33.0564 145.706 33.047 145.6 33.0666 145.489C33.0881 145.367 33.1435 145.259 33.2301 145.166C33.3166 145.072 33.4342 145.009 33.5769 144.978C33.7196 144.947 33.8711 144.946 34.0341 144.975C34.2134 145.006 34.3657 145.064 34.4942 145.145C34.62 145.226 34.7107 145.332 34.7644 145.456C34.8182 145.58 34.8365 145.715 34.817 145.857L34.5057 145.827C34.5162 145.672 34.4797 145.545 34.398 145.453C34.3163 145.36 34.1822 145.294 33.9975 145.262C33.8127 145.229 33.6571 145.238 33.555 145.293C33.4529 145.348 33.3941 145.427 33.3769 145.524C33.3616 145.611 33.3818 145.687 33.4342 145.755C33.4867 145.823 33.6369 145.909 33.8877 146.012C34.1384 146.114 34.3055 146.2 34.3956 146.261C34.5254 146.351 34.6143 146.45 34.6645 146.562C34.7148 146.675 34.7273 146.794 34.7043 146.925C34.6814 147.055 34.6223 147.167 34.5288 147.268C34.4354 147.369 34.3141 147.438 34.1641 147.478C34.0145 147.516 33.8539 147.521 33.6801 147.491C33.46 147.452 33.2837 147.387 33.148 147.299C33.0123 147.211 32.9127 147.093 32.851 146.95C32.7892 146.808 32.7711 146.656 32.7944 146.493L32.7894 146.489Z" fill="#231815"/>
<path d="M43.5694 149.19L43.9951 146.776L44.3239 146.834L45.2583 148.953L45.5926 147.057L45.8996 147.111L45.4739 149.526L45.1452 149.468L44.2108 147.348L43.8764 149.244L43.5694 149.19Z" fill="#231815"/>
<path d="M46.9664 148.575C47.0372 148.174 47.2009 147.881 47.4557 147.691C47.7105 147.501 48.0099 147.439 48.3495 147.499C48.5723 147.538 48.7638 147.628 48.9244 147.765C49.0851 147.903 49.1946 148.076 49.2562 148.282C49.3179 148.489 49.3258 148.714 49.2832 148.956C49.2406 149.197 49.1525 149.411 49.018 149.586C48.8863 149.761 48.7192 149.882 48.5195 149.951C48.3197 150.019 48.1155 150.033 47.9063 149.996C47.6781 149.956 47.4839 149.866 47.3242 149.723C47.1645 149.58 47.055 149.407 46.9961 149.201C46.9372 148.995 46.9264 148.786 46.9637 148.574L46.9664 148.575ZM47.2942 148.638C47.243 148.929 47.2812 149.173 47.4068 149.366C47.5348 149.562 47.7155 149.68 47.9519 149.722C48.1883 149.764 48.4069 149.716 48.5914 149.575C48.7759 149.434 48.8972 149.206 48.9518 148.897C48.9862 148.702 48.9842 148.522 48.9421 148.364C48.9 148.206 48.825 148.075 48.7117 147.971C48.5983 147.867 48.4615 147.801 48.3012 147.773C48.0757 147.733 47.8663 147.777 47.676 147.903C47.4857 148.029 47.3583 148.275 47.2942 148.638Z" fill="#231815"/>
<path d="M50.3312 150.382L50.7568 147.968L51.83 148.157C52.0446 148.195 52.2065 148.246 52.3102 148.309C52.414 148.372 52.4902 148.464 52.5385 148.587C52.5873 148.708 52.5984 148.835 52.575 148.968C52.5448 149.139 52.4652 149.273 52.3327 149.373C52.2008 149.47 52.0162 149.516 51.7796 149.508C51.8566 149.563 51.9146 149.615 51.9514 149.661C52.0285 149.764 52.0995 149.886 52.1612 150.028L52.4666 150.759L52.0645 150.688L51.8324 150.129C51.7654 149.969 51.7062 149.844 51.6603 149.755C51.6139 149.669 51.5691 149.605 51.5255 149.566C51.4819 149.528 51.4368 149.498 51.3903 149.475C51.3564 149.461 51.2971 149.448 51.2129 149.433L50.8407 149.367L50.6517 150.439L50.3312 150.382ZM50.8895 149.091L51.5768 149.212C51.7235 149.238 51.8405 149.241 51.9273 149.226C52.014 149.211 52.0851 149.173 52.1401 149.115C52.195 149.058 52.2297 148.988 52.2435 148.91C52.2636 148.796 52.2396 148.694 52.1683 148.606C52.097 148.518 51.9733 148.457 51.794 148.425L51.0278 148.29L50.8872 149.087L50.8895 149.091Z" fill="#231815"/>
<path d="M53.6651 150.97L54.0908 148.556L54.4114 148.612L53.9857 151.027L53.6651 150.97Z" fill="#231815"/>
<path d="M56.009 151.383L56.3845 149.254L55.5885 149.114L55.6387 148.829L57.554 149.167L57.5038 149.451L56.7051 149.311L56.3296 151.44L56.009 151.383Z" fill="#231815"/>
<path d="M58.0362 151.741L59.3911 149.49L59.7361 149.551L60.2993 152.14L59.9353 152.076L59.7819 151.293L58.7712 151.115L58.3758 151.801L58.0362 151.741ZM58.909 150.874L59.7295 151.019L59.5945 150.307C59.5543 150.09 59.5264 149.914 59.5118 149.775C59.4547 149.924 59.384 150.071 59.3001 150.213L58.909 150.874Z" fill="#231815"/>
<path d="M61.3858 152.331L61.8115 149.917L62.1321 149.974L61.9212 151.17L63.3329 150.186L63.7676 150.262L62.5816 151.063L63.3881 152.684L62.967 152.61L62.321 151.238L61.8565 151.553L61.7091 152.388L61.3886 152.332L61.3858 152.331Z" fill="#231815"/>
<path d="M64.5021 152.881L64.9277 150.467L66.6774 150.775L66.6271 151.06L65.1981 150.808L65.0675 151.549L66.4042 151.784L66.3545 152.066L65.0178 151.831L64.8729 152.653L66.3562 152.914L66.306 153.199L64.5021 152.881Z" fill="#231815"/>
<path d="M38.1061 148.226L39.2626 147.133L38.6405 145.831L39.0208 145.898L39.3492 146.594C39.4191 146.738 39.4639 146.849 39.4927 146.924C39.5623 146.847 39.6411 146.766 39.7311 146.684L40.3303 146.129L40.6781 146.191L39.6273 147.177L40.3181 148.614L39.9214 148.544L39.4645 147.576C39.4378 147.521 39.4147 147.461 39.3867 147.398C39.3171 147.475 39.2681 147.531 39.2379 147.559L38.4838 148.293L38.1007 148.225L38.1061 148.226Z" fill="#231815"/>
</g>
<defs>
<clipPath id="clip0_285_784">
<rect width="74" height="161" fill="white" transform="translate(27.957) rotate(10)"/>
</clipPath>
</defs>
</svg>
