<svg width="161" height="161" viewBox="0 0 161 161" fill="none" xmlns="http://www.w3.org/2000/svg">
<g clip-path="url(#clip0_224_736)">
<path d="M80.5003 160.526C124.697 160.526 160.526 124.697 160.526 80.5C160.526 36.303 124.697 0.474243 80.5003 0.474243C36.3034 0.474243 0.474609 36.303 0.474609 80.5C0.474609 124.697 36.3034 160.526 80.5003 160.526Z" fill="white" stroke="black" stroke-width="1.43" stroke-miterlimit="10"/>
<path d="M78.3493 62.2704C78.4027 62.197 78.4428 61.8028 78.4628 61.7227C78.6432 61.0012 78.8837 60.2932 79.1776 59.6051C79.3179 59.2845 79.4515 58.9639 79.5984 58.6432C80.2731 57.1402 81.2016 55.8109 82.2904 54.5818C82.8315 53.9739 83.3859 53.3861 83.9671 52.825C84.4748 52.3307 85.0292 51.8831 85.5836 51.4422C86.3452 50.8277 87.1401 50.2666 87.9751 49.7522C88.0552 49.7055 88.1287 49.652 88.2155 49.6119C89.2777 49.0441 90.3331 48.4563 91.442 47.9754C92.2636 47.6213 93.1053 47.3341 93.9536 47.0468C95.0692 46.6661 96.2114 46.3788 97.3604 46.1117C98.4359 45.8779 98.9101 45.7843 99.8854 45.6574C100.66 45.5572 101.829 45.4704 102.604 45.4036C103.726 45.3101 104.849 45.2633 105.971 45.2767C107.287 45.29 108.603 45.3769 109.912 45.5305C111.101 45.6641 112.29 45.8311 113.466 46.0382C114.381 46.2052 115.276 46.4523 116.164 46.7396C117.594 47.2072 118.977 47.7883 120.326 48.4496C121.188 48.8705 122.009 49.3648 122.804 49.8992C123.532 50.3868 124.24 50.8945 124.922 51.4489C126.231 52.511 127.373 53.7335 128.389 55.0761C129.07 55.9779 129.658 56.9332 130.186 57.9218C130.647 58.7902 131.074 59.6786 131.441 60.5938C131.816 61.549 132.103 62.5243 132.296 63.5329C132.55 64.8489 132.711 66.1715 132.811 67.5008C132.891 68.5563 132.918 69.6184 132.851 70.6738C132.784 71.7426 132.704 72.8047 132.544 73.8601C132.457 74.4413 132.383 75.0291 132.303 75.6103C132.256 75.9777 132.17 76.3317 132.089 76.6924C132.029 76.973 131.942 77.0331 132.223 77.0865C132.53 77.1533 132.938 77.1934 133.232 77.307C134.347 77.7412 135.209 78.4693 135.85 79.4646C136.057 79.7786 136.211 80.1259 136.338 80.4866C136.605 81.2482 136.792 82.023 136.872 82.8246C136.952 83.6062 136.972 84.3877 136.919 85.1693C136.872 85.8974 136.745 86.6121 136.578 87.3202C136.451 87.868 136.231 88.389 136.024 88.9101C135.743 89.6181 135.369 90.2661 134.928 90.8873C134.093 92.0697 132.944 92.751 131.548 93.065C131.014 93.1852 130.48 93.2453 129.932 93.2387C129.631 93.2387 129.184 93.2453 128.883 93.232C128.482 93.2119 128.309 93.3656 128.068 93.6795C127.921 93.8666 127.781 94.0603 127.661 94.2674C127.52 94.5012 127.373 94.735 127.24 94.9821C126.705 95.9641 126.057 96.8725 125.356 97.7343C125.109 98.0415 124.868 98.3555 124.601 98.6494C123.913 99.4042 123.198 100.132 122.397 100.78C121.789 101.268 121.181 101.769 120.56 102.243C119.939 102.717 119.271 103.132 118.576 103.499C117.614 104.007 116.632 104.468 115.623 104.868C113.893 105.556 112.116 106.111 110.286 106.472C109.571 106.612 108.85 106.719 108.135 106.826C107.3 106.953 106.458 107.059 105.61 107.126C105.149 107.166 104.688 107.186 104.234 107.213C103.352 107.253 102.471 107.3 101.582 107.267C100.406 107.226 99.2308 107.126 98.0551 107.019C95.6036 106.792 93.2723 106.104 90.9744 105.263C89.979 104.895 89.0305 104.421 88.1087 103.907C87.1267 103.359 86.1782 102.758 85.2563 102.116C84.9825 101.929 84.7353 101.709 84.4748 101.502C83.8402 101.007 83.2323 100.486 82.6578 99.9253C82.3506 99.6247 82.05 99.304 81.756 98.9901C81.6358 98.8632 81.5423 98.7162 81.4287 98.5759C81.1348 98.2085 80.8409 97.8411 80.5536 97.4737C80.4668 97.3669 80.3867 97.2533 80.2998 97.1464C80.2263 97.0529 80.1595 96.9527 80.0794 96.8659C80.0059 96.779 79.9658 96.779 79.8656 96.8458C79.8322 96.8659 79.8055 96.8926 79.7788 96.9126C79.545 97.0997 79.3045 97.26 79.0507 97.4069C78.6231 97.6608 78.1956 97.9146 77.7614 98.1484C77.5143 98.282 77.2471 98.3956 76.9866 98.5091C76.1382 98.8966 75.2431 99.1638 74.3346 99.3642C73.4128 99.5646 72.4776 99.6314 71.5357 99.5512C71.2151 99.5245 70.8945 99.5245 70.5738 99.4777C70.2799 99.431 69.9058 99.3575 69.6253 99.2773C69.485 99.2372 69.4716 99.304 69.3647 99.4109C69.004 99.7516 68.63 100.086 68.2425 100.393C67.127 101.288 65.9246 102.056 64.6353 102.677C64.0475 102.965 63.453 103.239 62.8585 103.506C62.6314 103.606 62.3976 103.693 62.1638 103.78C61.8164 103.907 61.4691 104.033 61.1284 104.16C60.2132 104.494 59.278 104.775 58.3295 105.015C57.4611 105.236 56.5927 105.443 55.7176 105.61C54.8292 105.784 53.9408 105.937 53.0456 106.044C52.1305 106.158 51.3423 106.211 50.4204 106.265C49.6723 106.298 48.9174 106.331 48.0624 106.351C47.0404 106.351 46.0183 106.325 44.9963 106.224C43.313 106.064 41.6697 105.723 40.0532 105.229C38.1627 104.648 36.3458 103.893 34.6157 102.938C34.0345 102.617 33.4801 102.257 32.9457 101.856C32.5516 101.562 32.1441 101.295 31.7767 100.981C31.2423 100.526 30.7146 100.072 30.2737 99.5245C30.2069 99.4376 30.1268 99.3575 30.0533 99.2773C29.8796 99.0836 29.7059 98.8966 29.559 98.6828C29.4521 98.5225 29.4454 98.469 29.245 98.4423C28.3499 98.3354 27.3679 98.0215 26.5663 97.6073C26.1054 97.3669 25.7046 97.0462 25.3439 96.6721C25.1569 96.4784 24.903 96.1845 24.7227 95.9841C24.4956 95.6234 24.4889 95.6234 24.402 95.3562C24.3085 95.069 24.3352 94.7951 24.4688 94.5279C24.5223 94.421 24.5757 94.3141 24.6425 94.2139C25.0901 93.4925 25.4308 92.7176 25.7581 91.9361C25.8249 91.7824 25.8783 91.6288 25.9518 91.4752C25.9919 91.3883 25.9986 91.3015 25.9852 91.2079C25.865 90.5867 25.7447 89.9588 25.6312 89.3376C25.6044 89.1906 25.5911 89.0436 25.5644 88.9034C25.4241 88.0083 25.364 87.1131 25.3706 86.2047C25.384 84.9221 25.3974 83.7197 25.4508 82.4773C25.4842 81.6757 25.5376 80.8741 25.5777 80.0792C25.5777 80.0057 25.5911 79.9322 25.5911 79.8587C25.6378 78.4893 25.7113 77.1199 25.7314 75.7439C25.7314 75.3364 25.7714 74.9356 25.7982 74.5281C25.8115 74.2877 25.8249 74.0472 25.8316 73.8134C25.8583 72.965 25.8716 72.6243 25.8917 71.7827C25.905 71.1748 25.9318 70.0592 25.9384 69.4514C25.9384 68.9437 26.0119 67.8215 26.0587 67.3138C26.072 66.746 26.072 66.9598 26.0587 66.4721C26.0587 66.3586 26.0587 66.2517 26.0587 66.1381C26.0587 65.9511 26.0453 65.7707 26.0052 65.5904C25.8984 65.1495 25.8783 64.6953 25.9184 64.2477C25.9919 63.4394 26.0854 62.6378 26.2591 61.8429C26.5463 60.5069 27.0406 59.2578 27.6953 58.0621C28.1228 57.2872 28.6104 56.5524 29.1582 55.851C30.0733 54.6887 31.0753 53.6132 32.1909 52.6446C33.0927 51.8564 33.3198 51.6426 34.3151 50.9746C35.1367 50.4603 36.6263 49.6253 37.4279 49.2445C37.7887 49.0976 38.1427 48.9506 38.4967 48.797C38.9443 48.6033 39.3985 48.4296 39.8661 48.2893C40.2335 48.1758 41.1153 47.8885 41.476 47.7616C42.4579 47.4877 44.4886 47.1003 45.357 46.9333C46.6329 46.6861 46.4258 46.773 47.7084 46.5859C48.2628 46.5058 49.031 46.4657 49.5921 46.4323C50.2067 46.3989 50.2735 46.3789 50.888 46.3388C51.2755 46.3187 51.6629 46.3054 52.0503 46.3054C53.0724 46.3054 54.0944 46.3187 55.1164 46.3588C55.7911 46.3855 56.4591 46.4523 57.1271 46.5058C57.6682 46.5525 58.2092 46.606 58.7503 46.6794C59.612 46.793 60.4537 46.98 61.302 47.1604C62.8117 47.481 64.2546 48.0021 65.6975 48.5432C66.7863 48.9506 67.835 49.4383 68.8303 50.0461C69.7255 50.5939 69.9058 50.6674 70.7742 51.2552C70.9278 51.3554 72.3173 52.3641 72.4642 52.4776C73.3393 53.159 73.6199 53.4863 74.3814 54.2946C74.6887 54.6219 75.0026 54.9492 75.3099 55.2832C75.5771 55.5771 75.8109 55.8978 76.0246 56.2318C76.4054 56.8196 76.8062 57.3941 77.1536 58.002C77.7147 58.9772 78.1088 60.0126 78.2825 61.1282C78.3092 61.3219 78.3292 61.5089 78.3493 61.7026C78.3626 61.7895 78.3292 62.2036 78.4027 62.2704H78.3493ZM79.3179 82.8647C79.3179 82.8647 79.3179 82.8647 79.3112 82.8647C79.3112 83.2054 79.3045 83.5461 79.3112 83.8867C79.3579 85.4699 79.5116 87.0463 79.7855 88.6095C80.0126 89.912 80.3332 91.1812 80.7941 92.4237C81.235 93.6127 81.756 94.755 82.4441 95.8171C83.0252 96.7189 83.6932 97.5539 84.4681 98.2954C85.0159 98.8164 85.597 99.2974 86.1982 99.7516C86.7727 100.186 87.3472 100.607 87.9483 101.007C88.5696 101.422 89.2109 101.802 89.8789 102.13C91.1748 102.771 92.5375 103.252 93.9336 103.639C95.1159 103.967 96.3116 104.227 97.5274 104.394C98.7298 104.561 99.9455 104.655 101.161 104.675C102.618 104.701 104.067 104.661 105.523 104.521C106.632 104.408 107.734 104.261 108.837 104.067C109.892 103.886 110.927 103.646 111.949 103.332C112.858 103.051 113.746 102.731 114.628 102.377C115.276 102.116 115.924 101.849 116.545 101.528C117.313 101.128 118.068 100.714 118.796 100.239C119.398 99.8451 119.972 99.4176 120.54 98.9767C120.8 98.7763 121.061 98.5626 121.301 98.3421C122.176 97.5472 122.938 96.6454 123.639 95.6969C124.294 94.8151 124.888 93.8933 125.443 92.9514C125.683 92.5439 125.964 92.1699 126.271 91.8158C126.806 91.1879 127.494 90.894 128.309 90.8606C128.649 90.8472 128.99 90.8606 129.331 90.894C129.631 90.914 129.938 90.9274 130.239 90.914C131.615 90.8539 132.664 90.2327 133.385 89.0637C133.499 88.8833 133.592 88.6963 133.679 88.5026C134 87.7945 134.194 87.0463 134.321 86.2782C134.414 85.7037 134.461 85.1292 134.441 84.5414C134.427 84.194 134.421 83.84 134.407 83.4926C134.374 82.8313 134.207 82.2034 133.973 81.5888C133.946 81.5087 133.906 81.4352 133.866 81.3684C133.699 81.0812 133.512 80.8073 133.298 80.5534C133.071 80.2796 132.797 80.0725 132.477 79.9122C131.902 79.6316 131.301 79.5047 130.66 79.5314C129.738 79.5715 128.91 79.8654 128.188 80.4332C128.028 80.5601 127.861 80.6737 127.674 80.7472C127.433 80.8474 127.18 80.8808 126.919 80.8407C126.425 80.7672 126.057 80.52 125.837 80.0725C125.73 79.852 125.757 79.7919 125.523 79.7919C125.43 79.7919 125.142 79.7652 125.049 79.7652C124.521 79.7519 124 79.7385 123.472 79.7251C122.417 79.7051 121.355 79.6516 120.299 79.6583C120.186 79.6583 120.079 79.6583 119.965 79.6583C119.812 79.6717 119.705 79.7452 119.671 79.9055C119.645 80.0524 119.611 80.1927 119.591 80.3397C119.504 80.9609 119.364 81.5688 119.15 82.1633C118.663 83.4926 117.881 84.6082 116.739 85.4565C115.984 86.0176 115.156 86.4385 114.261 86.7057C113.232 87.0196 112.177 87.1733 111.108 87.2067C110.333 87.2334 109.565 87.1733 108.796 87.0597C107.828 86.9194 106.913 86.6389 106.038 86.2047C104.528 85.4498 103.399 84.3143 102.664 82.7912C102.223 81.8761 101.99 80.9075 101.909 79.8988C101.896 79.7585 101.883 79.6249 101.869 79.4846C101.856 79.3844 101.796 79.3177 101.702 79.2843C101.609 79.2509 101.509 79.2241 101.408 79.2041C100.366 78.9703 99.331 78.9703 98.2889 79.1974C98.0551 79.2509 97.9749 79.3911 97.9415 79.5715C97.8881 79.9055 97.828 80.2462 97.7679 80.5802C97.5875 81.5755 97.2402 82.5173 96.6857 83.3724C95.8774 84.6282 94.7619 85.51 93.4125 86.1245C92.3771 86.5988 91.275 86.8126 90.146 86.886C89.0038 86.9595 87.8615 86.8927 86.7393 86.6723C85.9043 86.5053 85.096 86.2715 84.3345 85.884C82.8382 85.1225 81.6759 84.0136 80.9411 82.4906C80.5737 81.7291 80.3533 80.9275 80.233 80.0925C80.1796 79.7318 80.233 79.7719 79.8723 79.7652C79.7721 79.7652 79.6719 79.7652 79.5717 79.7652C79.5049 79.7652 79.4715 79.7986 79.4648 79.8654C79.4515 80.0391 79.4314 80.2128 79.4247 80.3864C79.3913 81.2148 79.3646 82.0431 79.3379 82.8714L79.3179 82.8647ZM27.5683 84.7618C27.5884 85.53 27.5617 86.385 27.6151 87.2401C27.6552 87.8346 27.7153 88.4291 27.8489 89.0169C27.8623 89.0904 27.8823 89.1572 27.8957 89.2307C27.9758 89.6849 28.076 90.1325 28.2163 90.5734C28.2965 90.8339 28.39 91.1011 28.4635 91.3616C28.7373 92.2901 29.1114 93.1852 29.559 94.0402C29.746 94.3876 29.933 94.735 30.1201 95.0823C30.6478 96.0576 31.2557 96.9794 31.9771 97.8211C32.2577 98.1484 32.5315 98.4891 32.8321 98.7964C33.2864 99.2439 33.7673 99.6514 34.2817 100.025C35.0365 100.573 35.8381 101.048 36.6798 101.442C37.5949 101.869 38.5234 102.277 39.4787 102.624C40.9483 103.158 42.7251 103.512 44.0144 103.679C44.7759 103.8 45.5507 103.866 46.3189 103.92C47.6883 104.013 49.0577 103.993 50.4338 103.886C50.701 103.866 51.2287 103.826 51.4959 103.793C52.3442 103.693 52.9321 103.606 53.7738 103.459C55.1097 103.232 56.4257 102.938 57.735 102.571C58.8706 102.257 59.9727 101.842 61.0816 101.442C61.3154 101.355 61.5492 101.268 61.7763 101.168C62.1704 100.994 62.5646 100.807 62.952 100.627C63.3795 100.426 63.807 100.233 64.2212 100.012C64.8424 99.6781 65.4436 99.2974 66.0314 98.8966C66.3588 98.6694 66.7061 98.3555 66.9733 98.0616C67.1403 97.8745 67.0936 97.8946 66.96 97.6942C66.9466 97.6808 66.9399 97.6608 66.9266 97.6474C66.6126 97.1598 66.4857 96.6187 66.5191 96.0442C66.5324 95.7303 66.6393 95.4497 66.8865 95.236C66.9199 95.2026 66.9533 95.1692 66.9867 95.1424C67.628 94.5279 68.1958 93.8532 68.7034 93.1251C68.9706 92.751 69.2245 92.3703 69.5184 92.0095C69.672 91.8225 69.8323 91.6488 70.006 91.4818C70.2532 91.248 70.5538 91.1412 70.8811 91.1278C71.2017 91.1077 71.5224 91.1078 71.843 91.1545C72.5377 91.248 73.2191 91.1879 73.8804 90.9341C74.8757 90.5533 75.6305 89.8987 76.1582 88.9768C76.539 88.3089 76.7728 87.5807 76.9131 86.8259C76.9866 86.4184 77.0266 86.0043 77.0467 85.5901C77.1135 84.4011 77.0801 83.2121 76.8396 82.0431C76.706 81.3884 76.4522 80.7806 76.0714 80.2261C75.6239 79.5848 74.9959 79.2041 74.2478 79.0304C73.6399 78.8901 73.0254 78.8835 72.4175 79.0438C72.0568 79.1373 71.7228 79.2843 71.4489 79.5448C71.2952 79.6917 71.155 79.8454 71.0013 79.9923C70.8277 80.166 70.6139 80.2328 70.3734 80.2395C70.1196 80.2395 69.9259 80.1393 69.7989 79.9255C69.7255 79.8053 69.6653 79.685 69.6319 79.5514C69.5919 79.4112 69.5384 79.3644 69.3714 79.3844C69.1911 79.4045 69.004 79.4112 68.817 79.4045C68.4563 79.3911 68.1022 79.3778 67.7415 79.3778C66.5325 79.3711 65.3301 79.3644 64.121 79.3577C64.0007 79.3577 63.8805 79.3577 63.7603 79.3711C63.5799 79.3911 63.5332 79.4245 63.5064 79.5982C63.473 79.7852 63.453 79.979 63.4263 80.1727C63.3261 80.9542 63.1457 81.7091 62.8384 82.4372C62.097 84.1873 60.8679 85.5033 59.2379 86.4652C58.9708 86.6255 58.6835 86.7458 58.3829 86.8526C57.3342 87.22 56.2587 87.3603 55.1498 87.3069C54.7891 87.2935 54.4351 87.2668 54.0744 87.2267C53.2594 87.1332 52.4912 86.9127 51.7765 86.5053C51.2955 86.2314 50.8413 85.9174 50.4204 85.5567C48.7571 84.1406 47.8286 82.337 47.5547 80.1794C47.5147 79.8587 47.4879 79.5381 47.4612 79.2174C47.4412 78.9903 47.3877 78.9302 47.174 78.8768C46.9469 78.8233 46.7264 78.7833 46.4926 78.7699C45.8447 78.7165 45.2034 78.7899 44.5688 78.8835C44.5421 78.8835 44.5154 78.8968 44.4886 78.9035C44.3617 78.9369 44.2816 79.0171 44.2548 79.1507C44.2348 79.2842 44.2081 79.4245 44.1947 79.5581C44.168 79.7852 44.1613 80.019 44.1212 80.2462C43.9609 81.2081 43.647 82.1165 43.1727 82.9716C42.4045 84.3476 41.3023 85.3764 39.9262 86.1245C39.2382 86.4986 38.5168 86.7658 37.7486 86.8994C36.6197 87.0998 35.4974 87.053 34.3752 86.7925C33.2329 86.5186 32.2243 85.9909 31.3559 85.196C30.9551 84.8286 30.6077 84.4078 30.2871 83.9669C29.5055 82.8847 28.9511 81.7024 28.6839 80.3931C28.6304 80.1259 28.5904 79.8454 28.5436 79.5782C28.5236 79.4579 28.5035 79.4446 28.3766 79.4379C28.2497 79.4379 28.1161 79.4379 27.9892 79.4379C27.7754 79.4379 27.7754 79.4379 27.7621 79.645C27.7353 80.0524 27.7086 80.4532 27.6886 80.8607C27.6418 81.6623 27.5884 82.4572 27.555 83.2588C27.5349 83.7398 27.555 84.214 27.555 84.7818L27.5683 84.7618ZM79.6318 75.136C79.6051 76.0712 79.5851 76.8862 79.565 77.6944C79.5583 78.0885 79.5249 78.0351 79.9191 78.0418C79.9458 78.0418 79.9725 78.0418 79.9992 78.0418C80.0393 78.0418 80.066 78.0151 80.0794 77.975C80.0927 77.9282 80.0994 77.8881 80.1061 77.8414C80.1729 77.2135 80.3332 76.6123 80.5536 76.0244C80.9611 74.949 81.6158 74.0472 82.5176 73.3391C83.4394 72.6177 84.4815 72.1501 85.6104 71.8562C86.5589 71.609 87.5342 71.5355 88.5095 71.4821C88.9971 71.4554 89.4847 71.4888 89.9724 71.5222C90.941 71.5823 91.8895 71.7426 92.818 72.0232C93.6129 72.2636 94.3745 72.591 95.0625 73.0585C96.4185 73.9871 97.327 75.2228 97.7011 76.8394C97.7478 77.0398 97.8013 77.2335 97.8547 77.4272C97.9015 77.5875 97.9683 77.6343 98.1353 77.6276C98.3357 77.6143 98.5361 77.5942 98.7431 77.5742C99.6249 77.5074 100.507 77.5141 101.388 77.6276C101.489 77.641 101.589 77.6477 101.689 77.6543C101.829 77.661 101.916 77.5942 101.956 77.4606C101.99 77.3337 102.023 77.2135 102.056 77.0865C102.484 75.3498 103.473 74.0338 104.996 73.112C105.931 72.5509 106.946 72.2035 108.015 72.0098C108.476 71.923 108.943 71.8962 109.411 71.8495C109.685 71.8228 109.959 71.8027 110.239 71.7894C111.261 71.756 112.283 71.8428 113.292 72.0031C114.08 72.13 114.835 72.3505 115.563 72.6845C116.392 73.0585 117.146 73.5529 117.781 74.2075C118.529 74.9757 119.037 75.8842 119.351 76.9062C119.431 77.16 119.504 77.4205 119.565 77.6811C119.605 77.8614 119.711 77.9549 119.885 77.9683C120.059 77.9817 120.233 78.0017 120.406 77.995C121.188 77.995 121.969 78.0084 122.751 78.0284C123.365 78.0485 123.987 78.0485 124.601 78.0551C124.741 78.0551 125.022 78.0685 125.156 78.0551C125.336 78.0418 125.249 77.9549 125.229 77.7679C125.216 77.6677 125.202 77.5675 125.176 77.4673C125.069 76.9663 124.955 76.4586 124.848 75.9576C124.735 75.4366 124.574 74.9289 124.428 74.4146C124.174 73.5195 123.92 72.631 123.546 71.7693C123.071 70.6738 122.597 69.5716 121.989 68.5362C121.662 67.9684 121.335 67.4073 120.927 66.8863C120.346 66.1448 119.718 65.4501 119.023 64.8088C117.387 63.2991 115.617 61.9698 113.7 60.8342C113.078 60.4669 112.457 60.1195 111.816 59.7922C110.82 59.2912 109.818 58.8169 108.75 58.4695C108.015 58.2291 107.267 58.0287 106.505 57.8951C106.165 57.835 105.851 57.8817 105.543 58.0353C104.915 58.3493 104.314 58.7033 103.713 59.0641C103.125 59.4248 102.524 59.7655 101.909 60.0794C100.473 60.8142 99.0037 61.4688 97.5007 62.0567C96.8594 62.3105 96.2181 62.571 95.5568 62.7648C94.2141 63.1589 92.8381 63.3192 91.442 63.3259C91.0545 63.3259 90.6671 63.2991 90.2863 63.219C90.1995 63.1989 90.106 63.1789 90.0191 63.1455C89.7987 63.052 89.7319 62.8516 89.8521 62.6512C89.8855 62.5911 89.939 62.531 89.9857 62.4775C90.0592 62.3974 90.1394 62.3172 90.2262 62.2504C90.7205 61.8496 91.2082 61.4421 91.7158 61.0614C92.6109 60.3934 93.466 59.6853 94.2409 58.877C94.468 58.6432 94.6483 58.3827 94.8086 58.1022C94.8287 58.0688 94.8487 58.0354 94.8487 58.002C94.8487 57.9819 94.822 57.9485 94.802 57.9418C94.7151 57.9285 94.635 57.9552 94.5615 57.9886C94.301 58.0821 94.0471 58.1823 93.8 58.3226C93.0451 58.7434 92.2903 59.1709 91.5221 59.5717C90.6537 60.0327 89.7987 60.5203 88.9437 61.0146C87.3071 61.9632 85.7239 62.9852 84.1942 64.0941C83.4795 64.6151 82.8582 65.2163 82.3172 65.911C81.7226 66.6725 81.1816 67.4741 80.6939 68.3091C80.4802 68.6698 80.3132 69.0506 80.1996 69.4447C79.9992 70.1461 79.8589 70.8608 79.7654 71.5823C79.6585 72.4106 79.6051 73.2523 79.5984 74.0873C79.5984 74.4747 79.5984 74.8621 79.5984 75.1226L79.6318 75.136ZM45.3036 63.2991C44.7492 63.2991 44.1346 63.2925 43.5134 63.2991C42.4579 63.3192 42.8988 63.2991 41.8434 63.3659C41.6163 63.3793 39.8795 63.5062 39.6524 63.5329C39.1246 63.5931 38.5902 63.6599 38.0625 63.7267C37.3411 63.8202 36.6197 63.907 35.8982 64.0139C35.2369 64.1141 34.5689 64.2143 33.9076 64.3345C33.3264 64.4414 32.752 64.575 32.1909 64.7554C31.4627 64.9892 30.768 65.3098 30.1134 65.7106C29.6926 65.9644 29.3185 66.2717 28.9912 66.6391C28.577 67.1067 28.3566 67.4875 28.223 68.0887C28.0961 68.6565 28.0092 69.3913 28.0025 69.9724C27.9892 71.0145 27.9758 72.2102 27.9357 73.3725C27.909 74.0338 27.8957 74.4213 27.8556 75.0826C27.8021 75.9042 27.8289 76.7192 27.8289 77.5408C27.8289 77.5475 27.8289 77.5608 27.8289 77.5675C27.8355 77.6677 27.8556 77.6877 27.9691 77.6944C28.1161 77.6944 28.2631 77.6944 28.41 77.6944C28.5436 77.6944 28.557 77.6811 28.5703 77.5608C28.5904 77.4072 28.6037 77.2469 28.6304 77.0932C28.7106 76.639 28.8709 76.2048 29.0112 75.7706C29.1181 75.4433 29.265 75.1427 29.432 74.8421C29.7794 74.0605 30.4875 73.1788 31.0953 72.5509C31.5563 72.0699 31.9303 71.8361 32.5115 71.5088C33.5268 70.9276 34.6157 70.587 35.7847 70.5202C36.3391 70.4868 36.8869 70.5202 37.4413 70.5803C38.0158 70.6471 38.5902 70.7673 39.1246 70.9878C40.6076 71.6023 41.8167 72.5642 42.7518 73.8735C43.3864 74.7619 43.7872 75.7572 44.021 76.8194C44.0411 76.8995 44.0544 76.9797 44.0812 77.0598C44.1212 77.1867 44.2081 77.2602 44.3484 77.2535C44.4486 77.2535 44.5488 77.2469 44.649 77.2335C44.9028 77.2068 45.1633 77.1801 45.4171 77.16C45.8981 77.1266 46.3724 77.1133 46.8533 77.1868C47.0203 77.2135 47.1806 77.2402 47.3476 77.2535C47.5614 77.2736 47.6282 77.2268 47.7017 77.0264C47.7685 76.8394 47.8286 76.639 47.8954 76.452C48.3964 74.9356 49.2648 73.6664 50.4872 72.6444C51.1485 72.09 51.8767 71.6357 52.6983 71.3618C53.6201 71.0479 54.5687 70.8876 55.5439 70.8942C55.898 70.8942 56.2453 70.921 56.5927 70.961C57.1404 71.0278 57.6882 71.1147 58.2092 71.3151C59.4383 71.7827 60.4938 72.4974 61.3689 73.4794C62.2506 74.4613 62.8518 75.6036 63.2058 76.8728C63.2526 77.0398 63.306 77.2068 63.3461 77.3805C63.3862 77.5408 63.4864 77.6076 63.64 77.6209C63.6734 77.6209 63.7135 77.6276 63.7469 77.6276C64.2613 77.6477 64.7756 77.6744 65.29 77.6877C66.0448 77.7011 66.7996 77.7011 67.5545 77.7078C68.0087 77.7078 68.4563 77.7278 68.9105 77.7412C69.0775 77.7412 69.131 77.6877 69.0975 77.5274C69.0708 77.3805 69.0307 77.2402 68.9907 77.0999C68.8504 76.6123 68.7034 76.1313 68.5765 75.637C68.4028 74.9757 68.2358 74.3211 68.0221 73.6731C67.7148 72.7646 67.3674 71.8762 66.9399 71.0212C66.5992 70.3398 66.2051 69.6785 65.8043 69.0305C65.4369 68.4427 65.0295 67.8883 64.5485 67.3873C64.0208 66.8395 63.433 66.3719 62.7449 66.0379C62.0836 65.7106 61.3889 65.4701 60.6808 65.263C60.0863 65.0894 59.4918 64.9424 58.8973 64.7821C57.6014 64.4347 56.2787 64.1742 54.9561 63.9471C54.1011 63.8001 53.2394 63.7467 52.3776 63.6665C52.0103 63.6331 51.6429 63.6064 51.2755 63.5797C50.6876 63.5329 50.0998 63.4862 49.512 63.4528C48.5901 63.406 48.5901 63.4127 47.675 63.3726C47.2141 63.3526 45.9649 63.2858 45.3103 63.2858L45.3036 63.2991ZM89.4313 85.2762C89.9123 85.2428 90.3264 85.2361 90.7406 85.176C91.6891 85.049 92.5909 84.7618 93.4192 84.2808C94.4413 83.693 95.2028 82.8647 95.7038 81.8026C96.3584 80.4065 96.5187 78.9503 96.2248 77.4406C95.9843 76.1981 95.3364 75.2362 94.3143 74.5081C93.7532 74.1073 93.1387 73.8334 92.484 73.613C91.5555 73.3057 90.6003 73.1855 89.6317 73.132C88.6564 73.0786 87.6811 73.1187 86.7126 73.2857C85.931 73.4193 85.1695 73.6464 84.4614 74.0004C83.8602 74.301 83.3325 74.6884 82.8783 75.1894C82.1902 75.9443 81.8496 76.8528 81.7226 77.8547C81.5957 78.9035 81.7026 79.9322 82.0099 80.9409C82.4708 82.4505 83.406 83.5728 84.8088 84.3076C85.1695 84.4946 85.5436 84.6549 85.9243 84.7752C87.0866 85.1426 88.2757 85.2828 89.4246 85.2695L89.4313 85.2762ZM110.774 73.3992C109.685 73.3992 108.71 73.5061 107.748 73.7399C107.013 73.9203 106.312 74.1941 105.67 74.6083C104.555 75.3297 103.84 76.325 103.573 77.6276C103.319 78.8768 103.372 80.1192 103.78 81.335C104.254 82.7578 105.136 83.8467 106.452 84.5814C107.354 85.0891 108.329 85.3697 109.358 85.4966C109.952 85.5701 110.553 85.5634 111.148 85.5634C111.582 85.5634 112.01 85.4966 112.437 85.4365C113.225 85.3229 113.987 85.1225 114.708 84.7818C115.81 84.2608 116.692 83.4926 117.287 82.4105C117.574 81.8894 117.768 81.335 117.901 80.7605C118.128 79.812 118.188 78.8501 117.988 77.8881C117.654 76.2916 116.746 75.1226 115.309 74.3611C114.695 74.0405 114.047 73.8134 113.366 73.6664C112.477 73.4727 111.582 73.4193 110.774 73.3925V73.3992ZM49.0243 79.1173C49.0243 79.5114 49.0577 79.9255 49.1379 80.333C49.4118 81.8226 50.0998 83.0851 51.1953 84.1272C51.9702 84.862 52.8653 85.3897 53.9341 85.5834C54.1612 85.6235 54.3883 85.6502 54.6154 85.677C55.4705 85.7905 56.3255 85.7438 57.1672 85.5434C57.7149 85.4098 58.2426 85.2227 58.7236 84.9221C61.3021 83.3056 62.3708 80.4733 61.7964 77.6477C61.5091 76.2516 60.8077 75.0826 59.7857 74.1006C59.2513 73.5863 58.6368 73.1721 57.9354 72.9249C56.7731 72.5108 55.5707 72.3839 54.3482 72.5776C53.8138 72.6644 53.2794 72.7913 52.7918 73.0385C50.3469 74.2743 49.051 76.6524 49.031 79.1173H49.0243ZM30.0199 78.977C30.0332 79.2575 30.0399 79.7118 30.1401 80.1526C30.5276 81.7959 31.3692 83.1586 32.6518 84.2408C33.2396 84.7351 33.9143 85.0557 34.6691 85.2227C35.3371 85.3764 36.0185 85.4164 36.6998 85.3964C37.5682 85.363 38.3898 85.1492 39.158 84.7418C40.0932 84.2408 40.8681 83.5594 41.4827 82.7044C41.9636 82.0297 42.311 81.2949 42.4846 80.48C42.6583 79.665 42.7385 78.8434 42.6516 78.0084C42.5448 77.0197 42.2843 76.0712 41.7632 75.2162C40.7278 73.5061 39.2182 72.4841 37.2476 72.1634C36.279 72.0031 35.3238 72.1367 34.3819 72.4239C33.1862 72.7913 32.2243 73.4794 31.4761 74.468C30.5075 75.7506 29.9865 77.1867 30.0132 78.9703L30.0199 78.977Z" fill="black"/>
<path d="M100.239 95.1959C99.0032 95.1759 97.8943 95.0423 96.8121 94.7016C96.4781 94.5947 96.1441 94.5079 95.8235 94.3609C95.4094 94.1672 95.042 93.9134 94.748 93.566C94.6545 93.4591 94.5877 93.3456 94.5476 93.2053C94.4875 92.9715 94.5543 92.7845 94.7547 92.6576C94.875 92.5774 95.0086 92.5507 95.1488 92.544C95.3158 92.5373 95.4761 92.564 95.6431 92.6108C95.75 92.6375 95.8569 92.6709 95.9571 92.711C96.3779 92.8847 96.8121 92.9849 97.253 93.0917C98.5155 93.3923 99.7981 93.4658 101.094 93.3857C101.675 93.3456 102.25 93.2788 102.817 93.1519C103.058 93.0984 103.298 93.0316 103.532 92.9448C103.833 92.8312 104.14 92.7377 104.461 92.6709C104.661 92.6241 104.861 92.6108 105.062 92.6442C105.356 92.6976 105.536 92.9581 105.469 93.2521C105.429 93.4324 105.349 93.5994 105.222 93.7397C105.095 93.8867 104.948 94.0136 104.781 94.1138C104.227 94.4545 103.646 94.7083 103.011 94.8686C102.069 95.1091 101.107 95.1759 100.246 95.2093L100.239 95.1959Z" fill="black"/>
<path d="M99.4446 85.3496C100.026 85.3696 100.56 85.4832 101.061 85.7103C101.609 85.9575 102.023 86.3516 102.304 86.886C102.404 87.0797 102.457 87.2801 102.451 87.4939C102.451 87.8212 102.197 88.0149 101.876 87.9481C101.729 87.9147 101.602 87.8412 101.489 87.7477C101.362 87.6475 101.228 87.5406 101.095 87.4471C100.587 87.0864 100.019 86.8793 99.3978 86.8593C98.8768 86.8392 98.4226 86.9996 98.0285 87.3402C97.9149 87.4338 97.808 87.5406 97.6945 87.6342C97.5876 87.721 97.4673 87.7945 97.3337 87.8346C97.2269 87.868 97.12 87.8746 97.0064 87.8412C96.8194 87.7878 96.7058 87.6609 96.6858 87.4672C96.6724 87.3536 96.6858 87.2467 96.7192 87.1398C96.8127 86.8058 96.973 86.5119 97.2135 86.2581C97.5943 85.8439 98.0685 85.5968 98.6096 85.4632C98.8033 85.4164 99.0104 85.3964 99.2108 85.3697C99.3043 85.3563 99.3912 85.3563 99.4513 85.3563L99.4446 85.3496Z" fill="black"/>
<path d="M131.796 84.8486C131.782 85.5834 131.675 86.2982 131.361 86.9661C131.301 87.0997 131.234 87.2333 131.148 87.3536C131.061 87.4671 130.954 87.5473 130.82 87.5941C130.633 87.6542 130.486 87.5673 130.439 87.3803C130.413 87.2601 130.419 87.1465 130.439 87.0263C130.506 86.6856 130.58 86.3449 130.647 85.9976C130.78 85.3028 130.794 84.6081 130.707 83.9134C130.687 83.7397 130.673 83.566 130.687 83.3924C130.687 83.3122 130.707 83.2254 130.74 83.1519C130.827 82.9582 131.001 82.8914 131.194 82.9849C131.315 83.045 131.395 83.1385 131.468 83.2454C131.622 83.4792 131.702 83.7464 131.729 84.0203C131.755 84.2942 131.769 84.568 131.789 84.8419L131.796 84.8486Z" fill="black"/>
<path d="M45.8848 94.5547C45.0097 94.5079 44.1346 94.4878 43.2863 94.2674C43.0391 94.2006 42.7853 94.1472 42.5314 94.0937C42.2442 94.0269 41.9703 93.9134 41.7098 93.7664C41.4894 93.6462 41.2756 93.5259 41.0618 93.399C40.8481 93.2721 40.6611 93.1051 40.5141 92.898C40.4072 92.7511 40.3404 92.5908 40.3271 92.4171C40.307 92.21 40.3939 92.063 40.5675 91.9562C40.6811 91.8894 40.808 91.8626 40.9349 91.856C41.1286 91.8493 41.3224 91.8893 41.5027 91.9495C41.7833 92.0363 42.0638 92.1298 42.3377 92.23C43.0658 92.5039 43.8207 92.6509 44.5955 92.7377C44.9162 92.7711 45.2368 92.8045 45.5574 92.8312C45.6977 92.8446 45.8313 92.8513 45.9716 92.8513C47.0404 92.8513 48.1025 92.7177 49.1446 92.4705C49.3851 92.4171 49.6189 92.3302 49.8593 92.2501C50.1733 92.1432 50.5006 92.0764 50.8346 92.0831C50.9548 92.0831 51.0751 92.1031 51.1886 92.1432C51.4625 92.2501 51.5894 92.5039 51.5093 92.7911C51.4625 92.9448 51.3757 93.0717 51.2621 93.1853C51.1419 93.3122 51.0016 93.4124 50.848 93.5059C50.3269 93.8265 49.7725 94.067 49.1713 94.1873C48.6369 94.2941 48.1092 94.421 47.5681 94.4745C47.1272 94.5212 46.693 94.5747 46.2455 94.548C46.1252 94.5413 46.005 94.548 45.8848 94.548V94.5547Z" fill="black"/>
<path d="M42.6982 86.9529C42.6982 86.7859 42.7316 86.6657 42.7784 86.5454C42.8586 86.345 42.9721 86.1713 43.1258 86.0177C43.6602 85.4699 44.2881 85.1226 45.0696 85.0959C45.5105 85.0758 45.9514 85.0691 46.3856 85.1827C46.92 85.323 47.3942 85.5768 47.8151 85.9375C48.1023 86.1847 48.296 86.4853 48.4163 86.846C48.4697 86.9996 48.4497 87.1399 48.3829 87.2735C48.276 87.5006 48.0622 87.6075 47.8151 87.5608C47.6882 87.534 47.5679 87.4873 47.4477 87.4405C47.3408 87.3938 47.2272 87.3403 47.1337 87.2735C46.773 87.013 46.3655 86.8928 45.938 86.7926C45.1364 86.6055 44.4283 86.7926 43.7804 87.2735C43.6802 87.3537 43.58 87.4339 43.4598 87.4806C43.1057 87.6142 42.7851 87.4405 42.7116 87.0664C42.7049 87.0197 42.7049 86.9729 42.6982 86.9663V86.9529Z" fill="black"/>
<path d="M74.3747 84.6883C74.3346 85.3496 74.2812 86.0176 74.0474 86.6589C73.9739 86.866 73.8804 87.0664 73.7735 87.2601C73.6867 87.4138 73.5598 87.534 73.4061 87.6208C73.326 87.6676 73.2324 87.6876 73.1389 87.6743C72.9853 87.6609 72.8651 87.554 72.8317 87.4004C72.8049 87.2735 72.7983 87.1466 72.8183 87.0196C72.8383 86.8526 72.8784 86.6923 72.9252 86.5387C73.1723 85.717 73.2659 84.8821 73.179 84.0337C73.1523 83.7865 73.1456 83.5394 73.1323 83.2922C73.1256 83.1453 73.1456 82.9983 73.1924 82.858C73.2592 82.6443 73.4395 82.5574 73.6533 82.6376C73.827 82.6977 73.9539 82.818 74.034 82.9783C74.1409 83.1787 74.2144 83.3991 74.2678 83.6262C74.3413 83.9803 74.368 84.3343 74.3814 84.7017L74.3747 84.6883Z" fill="black"/>
<path d="M110.6 68.1689C111.214 68.1822 111.715 68.2223 112.276 68.3225C112.697 68.4294 113.058 68.5363 113.459 68.7099C113.659 68.7968 113.966 69.0172 114.127 69.1709C114.26 69.2978 114.34 69.4447 114.367 69.6251C114.407 69.9123 114.267 70.1328 113.986 70.2129C113.773 70.2797 113.552 70.2664 113.332 70.2263C112.931 70.1528 112.537 70.0726 112.136 70.0058C111.02 69.8188 109.905 69.8188 108.783 70.0058C108.535 70.0459 108.295 70.0927 108.048 70.1261C107.827 70.1595 107.607 70.1595 107.393 70.0793C106.919 69.899 106.792 69.3779 107.146 69.0105C107.326 68.8235 107.547 68.6899 107.787 68.5897C108.282 68.3759 108.809 68.2757 109.337 68.2089C109.765 68.1555 110.199 68.1288 110.6 68.1555V68.1689Z" fill="black"/>
<path d="M89.1841 68.0019C89.8254 68.0019 90.4199 68.0954 91.0078 68.209C91.3551 68.2758 91.6758 68.416 91.9897 68.5697C92.2302 68.6832 92.4172 68.8569 92.5441 69.0907C92.7779 69.5516 92.5241 69.919 92.0565 69.9457C91.8628 69.9591 91.6691 69.9391 91.482 69.9057C90.5001 69.732 89.5114 69.6785 88.5095 69.7387C88.2089 69.7587 87.9016 69.7721 87.601 69.7988C87.2403 69.8322 86.8996 69.9391 86.5455 70.0059C86.4453 70.0259 86.3451 70.0526 86.2516 70.0793C86.0913 70.1194 85.9243 70.1261 85.7573 70.0994C85.4701 70.066 85.3098 69.8389 85.3498 69.5516C85.3766 69.3512 85.4634 69.1842 85.6037 69.0439C85.8375 68.8168 86.098 68.6298 86.3986 68.5029C87.0131 68.2357 87.6611 68.1087 88.3224 68.0553C88.623 68.0353 88.9236 67.9818 89.1908 68.0086L89.1841 68.0019Z" fill="black"/>
<path d="M54.9692 67.2269C56.1382 67.1935 57.2537 67.4006 58.3426 67.8147C58.5964 67.9082 58.8235 68.0418 59.0507 68.1821C59.1909 68.269 59.3112 68.3892 59.418 68.5161C59.5316 68.6564 59.5851 68.8234 59.5784 69.0038C59.565 69.2376 59.4247 69.4179 59.1976 69.4847C58.9905 69.5448 58.7768 69.5382 58.5697 69.5048C58.3827 69.4714 58.1889 69.4313 58.0019 69.3778C57.394 69.2242 56.7862 69.0772 56.1649 69.0104C55.8443 68.977 55.5236 68.977 55.203 68.9704C54.4949 68.957 53.7869 69.0238 53.0855 69.1106C52.865 69.1374 52.6446 69.1374 52.4242 69.124C52.177 69.1106 51.99 68.9971 51.8564 68.7833C51.7695 68.643 51.7495 68.4894 51.8029 68.3358C51.8898 68.0886 52.0434 67.9016 52.2638 67.7747C52.4843 67.6411 52.7247 67.5475 52.9786 67.4807C53.6332 67.3071 54.2945 67.2336 54.9692 67.2202V67.2269Z" fill="black"/>
<path d="M36.0649 67.1067C36.8665 67.0933 37.775 67.2403 38.6567 67.5075C38.8772 67.5743 39.0843 67.6811 39.2646 67.8214C39.4316 67.9483 39.5385 68.1153 39.5853 68.3224C39.6387 68.5963 39.5185 68.8434 39.2713 68.9637C39.1511 69.0238 39.0308 69.0438 38.8972 69.0438C38.5499 69.0505 38.1958 69.0238 37.8551 68.9704C37.4343 68.9102 37.0202 68.8568 36.5993 68.7967C36.0382 68.7165 35.4771 68.7566 34.9227 68.8368C34.4217 68.9036 33.9273 69.0305 33.4531 69.1975C33.246 69.271 33.0256 69.311 32.8051 69.311C32.7383 69.311 32.6782 69.311 32.6114 69.2977C32.2908 69.2309 32.1171 68.9637 32.1906 68.6364C32.2306 68.4493 32.3175 68.2957 32.4511 68.1554C32.6114 67.9884 32.7984 67.8548 33.0055 67.7479C33.4931 67.5008 34.0075 67.3338 34.5486 67.2469C35.0162 67.1735 35.4771 67.12 36.0716 67.1L36.0649 67.1067Z" fill="black"/>
<path d="M86.5117 78.7298C86.5117 78.3891 86.5184 78.1219 86.5919 77.8614C86.819 77.0531 87.2933 76.4586 88.1015 76.1981C89.2104 75.8374 90.4328 76.2783 90.994 77.3203C91.4749 78.2154 91.5618 79.1373 91.181 80.0858C90.8336 80.9475 90.012 81.4686 89.0835 81.4819C88.7695 81.4819 88.4623 81.4352 88.1617 81.335C87.7876 81.2081 87.4736 80.9876 87.2131 80.6937C86.819 80.2461 86.6052 79.7118 86.5384 79.1239C86.5251 78.9703 86.5184 78.81 86.5184 78.7298H86.5117Z" fill="black"/>
<path d="M108.068 78.7765C108.068 78.4024 108.149 78.015 108.289 77.6409C108.629 76.7725 109.284 76.2916 110.193 76.1647C111.415 75.991 112.711 76.6991 113.092 78.202C113.219 78.703 113.252 79.2174 113.118 79.7317C112.851 80.7471 112.183 81.3416 111.195 81.5754C110.052 81.8426 108.93 81.2882 108.409 80.2327C108.182 79.7785 108.055 79.3042 108.068 78.7698V78.7765Z" fill="black"/>
<path d="M57.5212 78.7298C57.5479 79.0371 57.4811 79.3577 57.3542 79.665C57.107 80.2862 56.6661 80.7004 56.0516 80.9342C55.5105 81.1346 54.9561 81.148 54.3949 80.9943C53.767 80.8206 53.3395 80.4065 53.0389 79.8521C52.7984 79.4045 52.7116 78.9169 52.725 78.4092C52.7383 77.8681 52.8986 77.3805 53.2193 76.9396C53.5399 76.492 53.9875 76.2315 54.5152 76.1113C54.9427 76.0111 55.3769 76.0244 55.8044 76.1246C56.3054 76.2449 56.7129 76.5188 57.0068 76.9463C57.3608 77.474 57.5412 78.0485 57.5278 78.7231L57.5212 78.7298Z" fill="black"/>
<path d="M33.9606 78.4292C33.9672 78.1687 33.9739 77.9549 34.014 77.7479C34.2545 76.4854 35.3634 75.8842 36.2852 75.9242C37.0133 75.9576 37.6145 76.2582 38.0687 76.8394C38.4562 77.3337 38.6499 77.8948 38.6298 78.5294C38.6165 78.9903 38.5363 79.4245 38.3092 79.832C38.1021 80.2061 37.8015 80.4933 37.4275 80.6804C36.9465 80.9208 36.4321 81.001 35.8978 80.9342C35.3634 80.8607 34.9225 80.6202 34.5818 80.1994C34.1543 79.6717 33.9472 79.0638 33.9606 78.4292Z" fill="black"/>
<path d="M122.17 105.136C122.063 105.136 121.963 105.116 121.869 105.076C121.776 105.035 121.696 104.982 121.629 104.915C121.562 104.848 121.509 104.768 121.468 104.675C121.428 104.581 121.415 104.488 121.415 104.381C121.415 104.274 121.435 104.174 121.475 104.087C121.515 103.993 121.569 103.913 121.635 103.846C121.702 103.78 121.782 103.726 121.876 103.686C121.969 103.646 122.07 103.626 122.177 103.626C122.283 103.626 122.384 103.646 122.477 103.686C122.571 103.726 122.651 103.78 122.718 103.846C122.784 103.913 122.838 103.993 122.878 104.087C122.918 104.18 122.931 104.274 122.931 104.381C122.931 104.488 122.911 104.588 122.871 104.681C122.831 104.775 122.778 104.855 122.711 104.922C122.644 104.989 122.564 105.042 122.47 105.082C122.377 105.122 122.277 105.142 122.17 105.142V105.136ZM122.17 105.055C122.263 105.055 122.357 105.035 122.437 105.002C122.517 104.969 122.591 104.922 122.651 104.855C122.711 104.795 122.764 104.721 122.798 104.635C122.831 104.548 122.851 104.461 122.851 104.367C122.851 104.274 122.831 104.18 122.798 104.1C122.764 104.02 122.718 103.947 122.658 103.886C122.597 103.826 122.524 103.78 122.444 103.746C122.364 103.713 122.27 103.693 122.177 103.693C122.083 103.693 121.99 103.713 121.909 103.746C121.829 103.78 121.756 103.826 121.696 103.893C121.635 103.953 121.589 104.027 121.555 104.107C121.522 104.187 121.502 104.274 121.502 104.374C121.502 104.474 121.522 104.554 121.555 104.641C121.589 104.721 121.635 104.795 121.696 104.855C121.756 104.915 121.829 104.969 121.909 105.002C121.99 105.035 122.083 105.055 122.177 105.055H122.17ZM122.19 104.822C122.103 104.822 122.03 104.802 121.963 104.762C121.896 104.721 121.843 104.668 121.802 104.601C121.762 104.534 121.742 104.454 121.742 104.367C121.742 104.281 121.762 104.2 121.802 104.134C121.843 104.067 121.896 104.013 121.963 103.973C122.03 103.933 122.11 103.92 122.19 103.92C122.263 103.92 122.33 103.933 122.39 103.967C122.45 104 122.497 104.033 122.531 104.087L122.437 104.154C122.41 104.114 122.37 104.08 122.33 104.06C122.29 104.04 122.243 104.033 122.19 104.033C122.13 104.033 122.076 104.047 122.023 104.074C121.976 104.1 121.936 104.14 121.909 104.187C121.883 104.241 121.869 104.294 121.869 104.361C121.869 104.428 121.883 104.488 121.909 104.534C121.936 104.581 121.976 104.621 122.023 104.648C122.07 104.675 122.123 104.688 122.19 104.688C122.243 104.688 122.29 104.681 122.33 104.661C122.37 104.641 122.41 104.608 122.437 104.568L122.531 104.635C122.497 104.688 122.45 104.728 122.39 104.755C122.33 104.782 122.263 104.802 122.19 104.802V104.822Z" fill="#231815"/>
<path d="M123.793 105.129V103.626H123.926L124.962 104.929H124.895V103.626H125.049V105.129H124.915L123.88 103.826H123.946V105.129H123.786H123.793Z" fill="#231815"/>
<path d="M126.17 105.142C126.063 105.142 125.963 105.116 125.876 105.069C125.79 105.022 125.723 104.949 125.676 104.862C125.629 104.775 125.603 104.675 125.603 104.568C125.603 104.461 125.629 104.354 125.676 104.267C125.723 104.18 125.796 104.114 125.876 104.067C125.957 104.02 126.057 103.993 126.17 103.993C126.284 103.993 126.377 104.02 126.464 104.067C126.551 104.114 126.618 104.18 126.665 104.267C126.711 104.354 126.738 104.454 126.738 104.561C126.738 104.668 126.711 104.768 126.665 104.855C126.618 104.942 126.544 105.009 126.458 105.056C126.371 105.102 126.271 105.129 126.164 105.129L126.17 105.142ZM126.17 105.009C126.25 105.009 126.324 104.989 126.384 104.955C126.444 104.922 126.498 104.868 126.531 104.802C126.564 104.735 126.584 104.661 126.584 104.575C126.584 104.488 126.564 104.408 126.531 104.341C126.498 104.274 126.444 104.227 126.384 104.187C126.324 104.154 126.25 104.134 126.17 104.134C126.09 104.134 126.017 104.154 125.957 104.187C125.896 104.221 125.843 104.274 125.81 104.341C125.776 104.408 125.756 104.481 125.756 104.575C125.756 104.668 125.776 104.742 125.81 104.802C125.85 104.868 125.896 104.922 125.957 104.955C126.017 104.989 126.09 105.009 126.17 105.009Z" fill="#231815"/>
<path d="M127.273 105.129V104.007H127.42V104.314L127.407 104.261C127.44 104.174 127.494 104.107 127.567 104.067C127.641 104.02 127.734 104 127.841 104V104.147C127.841 104.147 127.828 104.147 127.821 104.147C127.821 104.147 127.808 104.147 127.801 104.147C127.681 104.147 127.587 104.18 127.52 104.254C127.454 104.327 127.42 104.428 127.42 104.561V105.136H127.267L127.273 105.129Z" fill="#231815"/>
<path d="M128.422 103.76C128.422 103.76 128.362 103.746 128.342 103.726C128.322 103.706 128.309 103.679 128.309 103.646C128.309 103.613 128.322 103.593 128.342 103.572C128.362 103.552 128.389 103.539 128.422 103.539C128.456 103.539 128.482 103.552 128.502 103.572C128.522 103.593 128.536 103.619 128.536 103.646C128.536 103.673 128.522 103.706 128.502 103.726C128.482 103.746 128.456 103.76 128.422 103.76ZM128.342 105.136V104.013H128.496V105.136H128.342Z" fill="#231815"/>
<path d="M128.963 104.134V104.007H129.658V104.134H128.963ZM129.497 105.142C129.39 105.142 129.31 105.116 129.25 105.055C129.19 104.995 129.163 104.915 129.163 104.815V103.76H129.317V104.808C129.317 104.875 129.337 104.922 129.37 104.962C129.404 104.995 129.451 105.015 129.517 105.015C129.584 105.015 129.638 104.995 129.684 104.955L129.738 105.062C129.738 105.062 129.671 105.109 129.631 105.122C129.591 105.136 129.544 105.142 129.504 105.142H129.497Z" fill="#231815"/>
<path d="M130.539 105.142C130.452 105.142 130.379 105.129 130.319 105.102C130.259 105.076 130.212 105.035 130.179 104.989C130.145 104.942 130.132 104.882 130.132 104.822C130.132 104.762 130.145 104.708 130.172 104.661C130.199 104.615 130.245 104.575 130.312 104.548C130.379 104.521 130.459 104.501 130.566 104.501H130.953V104.615H130.573C130.466 104.615 130.386 104.635 130.346 104.675C130.306 104.715 130.285 104.762 130.285 104.815C130.285 104.882 130.312 104.929 130.359 104.969C130.406 105.009 130.479 105.029 130.566 105.029C130.653 105.029 130.726 105.009 130.786 104.969C130.847 104.929 130.893 104.875 130.92 104.802L130.953 104.909C130.927 104.982 130.873 105.042 130.807 105.089C130.74 105.136 130.646 105.156 130.539 105.156V105.142ZM130.927 105.129V104.842V104.428C130.927 104.334 130.9 104.261 130.847 104.207C130.793 104.154 130.713 104.127 130.606 104.127C130.533 104.127 130.466 104.14 130.399 104.16C130.332 104.187 130.279 104.214 130.232 104.254L130.165 104.14C130.225 104.094 130.292 104.053 130.372 104.027C130.452 104 130.539 103.987 130.626 103.987C130.773 103.987 130.887 104.02 130.967 104.094C131.047 104.167 131.087 104.274 131.087 104.421V105.122H130.94L130.927 105.129Z" fill="#231815"/>
<path d="M131.702 105.129V103.539H131.856V105.129H131.702ZM131.822 104.835V104.641L132.53 104H132.717L132.223 104.474L132.136 104.548L131.822 104.835ZM132.577 105.129L132.11 104.541L132.21 104.421L132.764 105.122H132.577V105.129Z" fill="#231815"/>
<path d="M133.679 105.142C133.558 105.142 133.458 105.116 133.371 105.069C133.285 105.022 133.211 104.949 133.164 104.868C133.118 104.782 133.091 104.681 133.091 104.575C133.091 104.468 133.118 104.367 133.164 104.281C133.211 104.194 133.278 104.127 133.365 104.08C133.445 104.033 133.545 104.007 133.645 104.007C133.745 104.007 133.846 104.033 133.926 104.08C134.006 104.127 134.073 104.194 134.12 104.281C134.166 104.367 134.193 104.468 134.193 104.581C134.193 104.588 134.193 104.595 134.193 104.601C134.193 104.608 134.193 104.615 134.193 104.628H133.211V104.514H134.106L134.046 104.561C134.046 104.481 134.026 104.408 133.993 104.341C133.959 104.274 133.912 104.227 133.852 104.194C133.792 104.16 133.725 104.14 133.645 104.14C133.565 104.14 133.498 104.16 133.438 104.194C133.378 104.227 133.331 104.281 133.298 104.341C133.264 104.401 133.244 104.481 133.244 104.561V104.588C133.244 104.675 133.264 104.748 133.298 104.815C133.338 104.882 133.391 104.929 133.458 104.969C133.525 105.009 133.605 105.022 133.692 105.022C133.759 105.022 133.826 105.009 133.886 104.989C133.946 104.969 133.993 104.929 134.039 104.875L134.126 104.975C134.079 105.035 134.013 105.082 133.939 105.116C133.866 105.149 133.779 105.162 133.692 105.162L133.679 105.142Z" fill="#231815"/>
<path d="M40.5137 123.091C40.5137 122.497 40.674 122.029 40.9946 121.695C41.3153 121.361 41.7294 121.188 42.2304 121.188C42.5644 121.188 42.8583 121.268 43.1255 121.428C43.3927 121.588 43.5931 121.809 43.7334 122.089C43.8737 122.37 43.9405 122.69 43.9405 123.051C43.9405 123.412 43.867 123.739 43.72 124.026C43.5731 124.314 43.366 124.534 43.0988 124.681C42.8316 124.828 42.5377 124.902 42.2304 124.902C41.8897 124.902 41.5891 124.821 41.3219 124.654C41.0547 124.494 40.8543 124.267 40.7207 123.986C40.5805 123.706 40.5137 123.405 40.5137 123.091ZM41.0013 123.098C41.0013 123.532 41.1149 123.873 41.3487 124.12C41.5825 124.367 41.8697 124.494 42.2237 124.494C42.5778 124.494 42.8717 124.367 43.1055 124.12C43.3393 123.866 43.4528 123.512 43.4528 123.051C43.4528 122.757 43.4061 122.503 43.3059 122.29C43.2057 122.069 43.0654 121.902 42.8717 121.782C42.6847 121.662 42.4709 121.602 42.2304 121.602C41.8964 121.602 41.6025 121.715 41.362 121.949C41.1215 122.183 41.0013 122.564 41.0013 123.105V123.098Z" fill="#231815"/>
<path d="M46.432 124.835L45.4834 121.248H45.971L46.5188 123.599C46.5789 123.846 46.6257 124.093 46.6724 124.334C46.766 123.953 46.8194 123.733 46.8327 123.673L47.5141 121.248H48.0886L48.6029 123.065C48.7299 123.512 48.8234 123.94 48.8835 124.334C48.9303 124.107 48.9904 123.846 49.0638 123.552L49.625 121.248H50.0992L49.1173 124.835H48.6631L47.9082 122.103C47.8414 121.876 47.808 121.735 47.7947 121.682C47.7546 121.849 47.7212 121.989 47.6878 122.103L46.9263 124.835H46.4386H46.432Z" fill="#231815"/>
<path d="M51.79 124.835V121.248H52.2777L54.1614 124.067V121.248H54.6157V124.835H54.128L52.2443 122.016V124.835H51.79Z" fill="#231815"/>
<path d="M56.666 124.835V121.248H57.9018C58.1824 121.248 58.3961 121.268 58.5431 121.301C58.7502 121.348 58.9238 121.435 59.0708 121.555C59.2578 121.715 59.4048 121.922 59.4983 122.17C59.5918 122.417 59.6386 122.704 59.6386 123.025C59.6386 123.298 59.6052 123.539 59.5451 123.746C59.485 123.953 59.3981 124.133 59.2979 124.267C59.1977 124.407 59.0908 124.514 58.9706 124.594C58.8504 124.674 58.7101 124.735 58.5431 124.775C58.3761 124.815 58.1824 124.835 57.9686 124.835H56.6727H56.666ZM57.1403 124.414H57.9085C58.1423 124.414 58.3293 124.394 58.4629 124.347C58.5965 124.3 58.7034 124.24 58.7836 124.16C58.8971 124.047 58.984 123.9 59.0441 123.706C59.1042 123.519 59.1376 123.285 59.1376 123.018C59.1376 122.644 59.0775 122.357 58.9506 122.156C58.8303 121.956 58.6767 121.822 58.503 121.749C58.3761 121.702 58.169 121.675 57.8884 121.675H57.1336V124.414H57.1403Z" fill="#231815"/>
<path d="M61.1416 124.835L62.5177 121.248H63.032L64.5016 124.835H63.9605L63.5397 123.746H62.0367L61.6426 124.835H61.1416ZM62.177 123.365H63.3927L63.0187 122.37C62.9051 122.069 62.8183 121.822 62.7648 121.628C62.7181 121.856 62.6579 122.089 62.5711 122.316L62.177 123.372V123.365Z" fill="#231815"/>
<path d="M67.1406 124.835V123.318L65.7578 121.254H66.3323L67.0404 122.337C67.174 122.537 67.2942 122.744 67.4078 122.944C67.5146 122.757 67.6482 122.544 67.8019 122.31L68.4966 121.254H69.051L67.6215 123.318V124.835H67.1472H67.1406Z" fill="#231815"/>
<path d="M70.5602 123.686L71.0078 123.646C71.0278 123.826 71.0813 123.973 71.1547 124.087C71.2349 124.2 71.3551 124.294 71.5155 124.367C71.6758 124.441 71.8628 124.474 72.0632 124.474C72.2436 124.474 72.4039 124.447 72.5442 124.394C72.6845 124.34 72.7847 124.267 72.8515 124.173C72.9183 124.08 72.9517 123.98 72.9517 123.866C72.9517 123.753 72.9183 123.652 72.8515 123.572C72.7847 123.485 72.6778 123.419 72.5308 123.358C72.4373 123.318 72.2235 123.265 71.8895 123.185C71.5622 123.105 71.3284 123.031 71.1948 122.958C71.0212 122.871 70.8942 122.757 70.8141 122.624C70.7272 122.49 70.6872 122.343 70.6872 122.176C70.6872 121.996 70.7406 121.829 70.8408 121.668C70.941 121.508 71.0946 121.395 71.2883 121.308C71.4887 121.228 71.7025 121.188 71.9497 121.188C72.2169 121.188 72.4507 121.228 72.6511 121.314C72.8515 121.401 73.0118 121.528 73.1187 121.695C73.2255 121.862 73.2857 122.049 73.2923 122.263L72.8381 122.296C72.8114 122.069 72.7312 121.896 72.5909 121.782C72.4507 121.668 72.2436 121.608 71.963 121.608C71.6825 121.608 71.4687 121.662 71.3351 121.769C71.2015 121.876 71.1414 122.002 71.1414 122.149C71.1414 122.276 71.1881 122.383 71.2817 122.47C71.3752 122.55 71.609 122.637 71.9964 122.724C72.3839 122.811 72.6444 122.884 72.7913 122.951C72.9984 123.045 73.1521 123.171 73.2523 123.318C73.3525 123.465 73.3992 123.639 73.3992 123.826C73.3992 124.013 73.3458 124.193 73.2322 124.367C73.1187 124.541 72.965 124.668 72.7579 124.761C72.5509 124.855 72.3237 124.902 72.0699 124.902C71.7426 124.902 71.4754 124.855 71.2549 124.761C71.0345 124.668 70.8608 124.527 70.7406 124.334C70.6204 124.14 70.5469 123.926 70.5469 123.686H70.5602Z" fill="#231815"/>
<path d="M86.752 124.835V121.248H87.2396L89.1233 124.067V121.248H89.5776V124.835H89.0899L87.2062 122.016V124.835H86.752Z" fill="#231815"/>
<path d="M91.4883 123.091C91.4883 122.497 91.6486 122.029 91.9692 121.695C92.2899 121.361 92.704 121.188 93.205 121.188C93.539 121.188 93.8329 121.268 94.1001 121.428C94.3673 121.588 94.5677 121.809 94.708 122.089C94.8483 122.37 94.9151 122.69 94.9151 123.051C94.9151 123.412 94.8416 123.739 94.6946 124.026C94.5477 124.314 94.3406 124.534 94.0734 124.681C93.8062 124.828 93.5123 124.902 93.205 124.902C92.8643 124.902 92.5637 124.821 92.2965 124.654C92.0294 124.487 91.829 124.267 91.6954 123.986C91.5551 123.706 91.4883 123.405 91.4883 123.091ZM91.9759 123.098C91.9759 123.532 92.0895 123.873 92.3233 124.12C92.5571 124.367 92.8443 124.494 93.1983 124.494C93.5524 124.494 93.8463 124.367 94.0801 124.12C94.3139 123.866 94.4275 123.512 94.4275 123.051C94.4275 122.757 94.3807 122.503 94.2805 122.29C94.1803 122.069 94.04 121.902 93.8463 121.782C93.6526 121.662 93.4455 121.602 93.205 121.602C92.871 121.602 92.5771 121.715 92.3366 121.949C92.0961 122.183 91.9759 122.564 91.9759 123.105V123.098Z" fill="#231815"/>
<path d="M96.7861 124.835V121.248H98.376C98.6966 121.248 98.9371 121.281 99.1041 121.341C99.2711 121.408 99.4047 121.522 99.5049 121.682C99.6051 121.842 99.6518 122.023 99.6518 122.223C99.6518 122.477 99.5717 122.691 99.4047 122.864C99.2377 123.038 98.9838 123.151 98.6432 123.198C98.7701 123.258 98.8636 123.318 98.9304 123.379C99.0707 123.506 99.1976 123.666 99.3245 123.853L99.9457 124.828H99.3512L98.877 124.08C98.7367 123.866 98.6231 123.699 98.5363 123.586C98.4494 123.472 98.3693 123.392 98.2958 123.345C98.2223 123.298 98.1555 123.265 98.082 123.252C98.0286 123.238 97.9418 123.232 97.8148 123.232H97.2671V124.821H96.7928L96.7861 124.835ZM97.2604 122.831H98.2824C98.4962 122.831 98.6699 122.811 98.7901 122.764C98.9104 122.717 99.0039 122.65 99.0707 122.55C99.1375 122.45 99.1642 122.343 99.1642 122.23C99.1642 122.063 99.1041 121.922 98.9772 121.809C98.8569 121.702 98.6565 121.642 98.396 121.642H97.2604V122.831Z" fill="#231815"/>
<path d="M101.735 124.835V121.248H102.21V124.835H101.735Z" fill="#231815"/>
<path d="M105.209 124.835V121.669H104.026V121.248H106.872V121.669H105.683V124.835H105.209Z" fill="#231815"/>
<path d="M108.215 124.835L109.591 121.248H110.105L111.575 124.835H111.034L110.613 123.746H109.11L108.716 124.835H108.215ZM109.25 123.365H110.466L110.092 122.37C109.978 122.069 109.892 121.822 109.838 121.628C109.791 121.856 109.731 122.089 109.644 122.316L109.25 123.372V123.365Z" fill="#231815"/>
<path d="M113.185 124.835V121.248H113.659V123.025L115.442 121.248H116.084L114.581 122.704L116.15 124.835H115.523L114.247 123.018L113.659 123.592V124.835H113.185Z" fill="#231815"/>
<path d="M117.808 124.835V121.248H120.399V121.669H118.282V122.764H120.266V123.185H118.282V124.407H120.486V124.828H117.808V124.835Z" fill="#231815"/>
<path d="M78.6493 124.835L80.0387 122.964L78.8163 121.248H79.384L80.032 122.17C80.1656 122.363 80.2658 122.51 80.3192 122.61C80.3994 122.477 80.4929 122.343 80.5998 122.203L81.3212 121.254H81.8356L80.5731 122.944L81.9291 124.841H81.3413L80.4395 123.559C80.386 123.485 80.3393 123.405 80.2858 123.318C80.2057 123.452 80.1456 123.539 80.1122 123.586L79.2104 124.835H78.6426H78.6493Z" fill="#231815"/>
</g>
<defs>
<clipPath id="clip0_224_736">
<rect width="161" height="161" fill="white"/>
</clipPath>
</defs>
</svg>
