<svg width="37" height="35" viewBox="0 0 37 35" fill="none" xmlns="http://www.w3.org/2000/svg">
<path d="M18.4998 0C8.29981 0 0 6.68619 0 14.9047C0 22.2725 6.58154 28.4429 15.4718 29.6097C16.0744 29.7386 16.8943 30.0041 17.1018 30.5153C17.2883 30.9797 17.2238 31.7071 17.1614 32.1761C17.1614 32.1761 16.9443 33.4722 16.8975 33.7482C16.817 34.2126 16.5259 35.5643 18.4998 34.7383C20.4745 33.9123 29.1541 28.5101 33.0354 24.0749C35.7158 21.156 37 18.1939 37 14.9047C37 6.68619 28.7013 0 18.4998 0Z" fill="white"/>
<path d="M13.3573 11C13.1602 11 13 11.1654 13 11.3686V19.6314C13 19.835 13.1602 20 13.3573 20H14.643C14.8401 20 15 19.835 15 19.6314V11.3686C15 11.1654 14.8401 11 14.643 11H13.3573Z" fill="black"/>
<path d="M23.6242 11H22.2708C22.0633 11 21.895 11.1654 21.895 11.3686V16.2776L18.0422 11.1639C18.0333 11.1509 18.0233 11.1385 18.0129 11.1265L18.0104 11.1243C18.003 11.116 17.9956 11.1087 17.9878 11.1014C17.9856 11.0992 17.9834 11.0974 17.9808 11.0952C17.9745 11.0894 17.9678 11.084 17.9608 11.0789C17.9578 11.076 17.9545 11.0738 17.9512 11.0712C17.9445 11.0669 17.9382 11.0622 17.9316 11.0582C17.9279 11.0556 17.9242 11.0534 17.9201 11.0516C17.9134 11.0476 17.9068 11.0436 17.9001 11.0404C17.8961 11.0385 17.8924 11.0364 17.8883 11.0349C17.8813 11.0316 17.8742 11.0284 17.8668 11.0258C17.8624 11.0244 17.8587 11.0229 17.8546 11.0214C17.8472 11.0189 17.8398 11.0164 17.8321 11.0145C17.828 11.0131 17.8236 11.0124 17.8191 11.0109C17.8117 11.0095 17.8047 11.0076 17.7977 11.0062C17.7925 11.0055 17.7869 11.0047 17.7818 11.0044C17.7751 11.0029 17.7684 11.0025 17.7618 11.0018C17.7555 11.0011 17.7492 11.0011 17.7426 11.0007C17.7377 11.0007 17.734 11 17.7292 11H16.3762C16.1687 11 16 11.1654 16 11.3686V19.6314C16 19.835 16.1687 20 16.3762 20H17.7292C17.9371 20 18.1054 19.835 18.1054 19.6314V14.7239L21.963 19.8441C21.9896 19.8811 22.0226 19.9113 22.0584 19.9353C22.0596 19.936 22.061 19.9371 22.0621 19.9382C22.0699 19.9429 22.0777 19.9477 22.0854 19.952C22.0891 19.9542 22.0925 19.9557 22.0962 19.9575C22.1017 19.9607 22.108 19.9636 22.1139 19.9662C22.1202 19.9687 22.1258 19.9713 22.1324 19.9738C22.1361 19.9753 22.1398 19.9767 22.1435 19.9778C22.1524 19.9811 22.1605 19.9836 22.169 19.9862C22.1709 19.9862 22.1727 19.9869 22.1746 19.9873C22.2053 19.9953 22.2375 20 22.2708 20H23.6242C23.8321 20 24 19.835 24 19.6314V11.3686C24 11.1654 23.8321 11 23.6242 11Z" fill="black"/>
<path d="M11.6345 17.9309H8.05118V11.3693C8.05118 11.1654 7.88719 11 7.68535 11H6.36619C6.16399 11 6 11.1654 6 11.3693V19.6303V19.631C6 19.7303 6.03929 19.8201 6.10236 19.8862C6.1038 19.888 6.10524 19.8899 6.10741 19.8917C6.10921 19.8935 6.11101 19.8949 6.11281 19.8968C6.17877 19.9607 6.26744 20 6.36583 20H11.6345C11.8367 20 12 19.8342 12 19.6303V18.3003C12 18.0963 11.8367 17.9309 11.6345 17.9309Z" fill="black"/>
<path d="M30.6345 13.0691C30.8367 13.0691 31 12.904 31 12.6997V11.3697C31 11.1658 30.8367 11 30.6345 11H25.3662H25.3655C25.2667 11 25.1777 11.04 25.1117 11.1043C25.1103 11.1058 25.1085 11.1069 25.1074 11.1083C25.1052 11.1105 25.1034 11.1127 25.1016 11.1149C25.0389 11.181 25 11.2704 25 11.3693V11.3697V19.6307V19.631C25 19.7303 25.0393 19.8201 25.1024 19.8862C25.1038 19.888 25.1056 19.8902 25.1074 19.8917C25.1088 19.8935 25.111 19.8953 25.1128 19.8968C25.1784 19.9604 25.2674 20 25.3655 20H30.6345C30.8367 20 31 19.8342 31 19.6307V18.3003C31 18.0967 30.8367 17.9309 30.6345 17.9309H27.0515V16.5344H30.6345C30.8367 16.5344 31 16.369 31 16.165V14.835C31 14.631 30.8367 14.4653 30.6345 14.4653H27.0515V13.0691H30.6345Z" fill="black"/>
</svg>
